<svg width="1942" height="542" viewBox="0 0 1942 542" fill="none" xmlns="http://www.w3.org/2000/svg">
<g clip-path="url(#clip0_26_758)">
<path d="M422.057 64.498C422.056 64.498 421.918 64.5036 421.865 64.5176C421.812 64.5315 421.77 64.5493 421.736 64.5664C421.669 64.6007 421.631 64.631 421.602 64.6562C421.485 64.7572 421.477 64.7945 421.447 64.8398C421.387 64.9306 421.331 65.0299 421.242 65.1875L421.016 65.5879C420.969 65.67 420.942 65.7614 420.936 65.8555L420.869 66.8086C420.822 67.4893 420.764 68.0958 420.652 69.041L420.498 70.3535C420.495 70.382 420.493 70.4107 420.494 70.4394L420.508 71.1719C420.519 71.8227 420.533 72.0256 420.592 72.4453L420.656 72.9082C420.665 72.9739 420.684 73.0379 420.713 73.0976L420.894 73.4687C420.895 73.4687 420.896 73.4687 420.897 73.4687C420.951 73.5791 421.001 73.677 421.045 73.7559C421.067 73.7953 421.084 73.8282 421.111 73.8691C421.125 73.8896 421.136 73.9093 421.178 73.957C421.188 73.969 421.201 73.9833 421.221 74.0019C421.24 74.0206 421.314 74.0738 421.314 74.0742C421.315 74.0744 421.412 74.1268 421.412 74.1269C421.412 74.127 421.588 74.1738 421.588 74.1738C421.588 74.1738 421.869 74.1426 421.869 74.1426C421.869 74.1425 422.12 73.9735 422.127 73.9687C422.137 73.956 422.187 73.8928 422.187 73.8926C422.188 73.8923 422.207 73.8601 422.213 73.8496C422.225 73.8285 422.23 73.8184 422.234 73.8086C422.243 73.789 422.248 73.7775 422.252 73.7676C422.26 73.7476 422.267 73.7326 422.273 73.7148C422.286 73.6792 422.301 73.6367 422.318 73.5859C422.353 73.4843 422.398 73.3503 422.445 73.2051L422.613 72.6855C422.643 72.5929 422.651 72.4946 422.637 72.3984L422.555 71.8437L422.494 71.4355L422.604 71.1015L422.758 70.6269C422.788 70.5337 422.796 70.4347 422.781 70.3379L422.619 69.2676L422.469 68.2812L422.607 67.1015L422.756 65.8359C422.763 65.7834 422.763 65.7302 422.756 65.6777L422.717 65.3867C422.717 65.386 422.717 65.3854 422.717 65.3847C422.705 65.2981 422.691 65.2159 422.68 65.1464C422.674 65.1117 422.668 65.081 422.662 65.0507C422.656 65.0229 422.663 65.0158 422.625 64.916C422.614 64.8856 422.6 64.849 422.576 64.8085C422.552 64.768 422.471 64.6763 422.471 64.6757C422.47 64.6752 422.286 64.551 422.285 64.5507C422.285 64.5504 422.057 64.4981 422.057 64.498Z" fill="#F1A546"/>
<path d="M448.729 38.3086C448.593 38.3093 448.466 38.3074 448.313 38.3398C448.16 38.3723 447.995 38.4521 447.865 38.5605C447.605 38.7774 447.406 39.0734 446.986 39.6465C445.444 41.7533 444.895 43.0193 442.959 48.9531C442.178 51.3483 441.739 52.7172 441.49 53.5996C441.242 54.482 441.182 54.9112 441.182 55.3301C441.181 55.6996 441.018 57.7047 440.818 59.6015L440.453 63.0605C440.45 63.0917 440.45 63.1231 440.453 63.1543L440.881 67.1953C440.998 68.3056 441.106 69.3433 441.184 70.1191C441.222 70.507 441.252 70.8296 441.274 71.0625C441.295 71.2954 441.307 71.5041 441.307 71.4375C441.307 71.5061 441.292 71.5631 441.346 71.709C441.373 71.7819 441.439 71.9034 441.582 71.9746C441.725 72.0458 441.877 72.0242 441.957 71.9961C442.118 71.9398 442.156 71.8838 442.219 71.8261C442.282 71.7685 442.347 71.7014 442.428 71.6172C442.711 71.3223 442.86 70.9137 443.264 69.7734C443.668 68.6331 444.281 66.7731 445.276 63.6992C447.514 56.7828 447.77 55.8932 449.248 49.8554L450.824 43.4179C450.834 43.377 450.838 43.335 450.836 43.2929L450.748 41.3515L450.66 39.4101C450.657 39.3433 450.639 39.278 450.607 39.2192C450.576 39.1603 450.531 39.1094 450.477 39.0703L450.004 38.7304C449.612 38.4488 449.194 38.3061 448.729 38.3086Z" fill="#F1A546"/>
<path d="M398.117 51.0469C398.002 51.013 397.831 51.0463 397.742 51.1074C397.653 51.1685 397.618 51.2274 397.588 51.2773C397.467 51.4769 397.416 51.6803 397.269 52.1211L396.965 53.041C396.945 53.1013 396.939 53.1657 396.949 53.2285L397.103 54.2012C397.184 54.7068 397.254 55.5469 397.258 55.998C397.268 57.3184 397.54 58.8494 398.107 60.8828C398.373 61.8352 398.775 63.5023 398.994 64.5586C399.219 65.6408 399.617 67.2927 399.887 68.2578C400.147 69.191 400.562 70.9039 400.799 72.0332C401.069 73.3203 401.372 74.5079 401.613 75.1758C401.856 75.8468 402.021 76.502 402.137 77.2656C402.289 78.2713 402.482 78.9372 403.4 81.6426C403.696 82.5129 403.969 83.3038 404.174 83.8789C404.276 84.1664 404.362 84.3996 404.424 84.5644C404.455 84.6469 404.481 84.711 404.502 84.7617C404.513 84.787 404.52 84.8078 404.533 84.834C404.54 84.8471 404.546 84.8609 404.564 84.8887C404.573 84.9026 404.616 84.9524 404.617 84.9531C404.617 84.9535 404.695 85.0135 404.695 85.0137C404.695 85.0137 404.777 85.0507 404.777 85.0508C404.777 85.0508 404.908 85.0703 404.908 85.0703C404.909 85.0703 404.972 85.0633 404.992 85.0586C405.012 85.0538 405.026 85.0495 405.039 85.0449C405.064 85.0357 405.082 85.0286 405.095 85.0215C405.123 85.0073 405.141 84.9945 405.16 84.9824C405.197 84.9583 405.232 84.9324 405.271 84.9023C405.349 84.8423 405.44 84.7661 405.535 84.6816C405.708 84.5271 405.875 84.3055 406.053 83.8555C406.23 83.4054 406.469 82.6722 406.912 81.2988L407.853 78.373C407.872 78.315 407.876 78.2535 407.867 78.1934L407.721 77.2285L407.576 76.2656C407.57 76.2235 407.558 76.1826 407.539 76.1445L406.101 73.3144L404.685 70.5293L404.371 69.1641V69.1621C404.189 68.3715 403.811 66.9044 403.525 65.8769C403.245 64.8699 402.948 63.5637 402.873 63.0585C402.733 62.1117 402.644 61.8476 402.064 60.6914C401.734 60.0323 401.261 58.9293 401.037 58.2929C400.795 57.6072 400.389 56.6331 400.109 56.0742L399.664 55.1816L399.58 53.9589L399.494 52.6581C399.489 52.5717 399.455 52.4893 399.398 52.4238L398.965 51.9257C398.729 51.6545 398.464 51.3398 398.402 51.2617C398.362 51.2106 398.347 51.1146 398.117 51.0469Z" fill="#F1A546"/>
<path d="M381.828 77.7051C381.797 77.7052 381.757 77.7043 381.691 77.7188C381.658 77.7259 381.567 77.7595 381.566 77.7598C381.566 77.7601 381.387 77.8863 381.387 77.8867C381.387 77.8869 381.32 77.9626 381.32 77.9629C381.32 77.9632 381.299 77.9952 381.293 78.0059C381.28 78.0272 381.275 78.0404 381.27 78.0508C381.259 78.0715 381.255 78.0811 381.25 78.0918C381.241 78.1131 381.236 78.1297 381.229 78.1484C381.214 78.1858 381.198 78.2307 381.18 78.2832C381.143 78.3882 381.096 78.5247 381.047 78.6738C381.046 78.6745 381.046 78.6752 381.045 78.6758L380.871 79.2051C380.821 79.358 380.834 79.5244 380.906 79.668L381.471 80.795L382.035 81.9219C382.065 81.9814 382.105 82.0355 382.152 82.0821L383.162 83.0782C384.329 84.2302 385.122 84.9753 386.645 86.3458C388.975 88.4431 391.057 90.2366 392.307 91.2188C392.446 91.3279 392.576 91.4287 392.678 91.504C392.729 91.5416 392.771 91.5725 392.811 91.5997C392.83 91.6132 392.849 91.6248 392.875 91.6407C392.888 91.6486 392.903 91.6579 392.932 91.6719C392.946 91.6789 392.963 91.6878 392.994 91.6993C393.01 91.705 393.054 91.7168 393.055 91.7169C393.055 91.7169 393.174 91.7364 393.174 91.7364C393.445 91.7509 393.654 91.5786 393.74 91.4473C393.826 91.3157 393.85 91.1959 393.85 91.0762C393.85 91.0759 393.845 90.9845 393.84 90.961C393.836 90.9375 393.832 90.9224 393.828 90.9102C393.821 90.8858 393.816 90.8723 393.812 90.8614C393.804 90.8395 393.798 90.8286 393.793 90.8165C393.783 90.7922 393.773 90.7697 393.762 90.7442C393.738 90.6931 393.707 90.6298 393.668 90.5489C393.589 90.387 393.478 90.1624 393.344 89.8946C393.075 89.3589 392.714 88.6481 392.344 87.9219C391.604 86.4695 390.862 85.0213 390.652 84.6582C390.218 83.905 389.927 83.4871 388.352 81.3848L386.838 79.3672C386.762 79.2659 386.656 79.1908 386.535 79.1524L386.102 79.0137C385.868 78.9389 385.035 78.6689 384.256 78.418C383.408 78.145 382.85 77.9672 382.494 77.8594C382.316 77.8056 382.19 77.7691 382.092 77.7442C382.042 77.7317 382.003 77.7236 381.947 77.7149C381.919 77.7105 381.89 77.705 381.828 77.7051Z" fill="#F1A546"/>
<path d="M447.047 133.748C447.047 133.748 446.951 133.764 446.951 133.764C446.951 133.764 446.867 133.797 446.867 133.797C446.867 133.797 446.752 133.883 446.752 133.883C446.752 133.883 446.666 134.002 446.666 134.002C446.666 134.002 446.635 134.078 446.635 134.078C446.635 134.078 446.619 134.158 446.619 134.158C446.619 134.159 446.615 134.208 446.615 134.221C446.616 134.246 446.616 134.257 446.617 134.268C446.619 134.289 446.622 134.304 446.625 134.322C446.63 134.358 446.637 134.401 446.647 134.455C446.665 134.564 446.692 134.718 446.727 134.904C446.796 135.277 446.893 135.787 447.002 136.346L447.399 138.371C447.408 138.42 447.425 138.468 447.45 138.512L449.25 141.668C450.931 144.612 451.238 145.102 453.563 148.574L456.057 152.299C456.075 152.327 456.097 152.353 456.121 152.377L457.252 153.461L458.381 154.547C458.431 154.595 458.491 154.632 458.557 154.654L459.815 155.074C460.162 155.19 460.485 155.295 460.729 155.373C460.85 155.412 460.951 155.444 461.028 155.467C461.066 155.478 461.098 155.486 461.125 155.494C461.153 155.502 461.103 155.508 461.252 155.519C461.256 155.519 461.466 155.487 461.467 155.486C461.468 155.486 461.552 155.443 461.576 155.424C461.626 155.385 461.646 155.359 461.662 155.338C461.695 155.296 461.709 155.272 461.721 155.25C461.746 155.205 461.761 155.167 461.781 155.121C461.822 155.028 461.868 154.91 461.922 154.766C462.03 154.476 462.166 154.084 462.307 153.652L462.817 152.098C462.849 151.999 462.848 151.892 462.813 151.795L461.889 149.238L460.963 146.68C460.95 146.644 460.932 146.61 460.91 146.578L459.334 144.248C457.887 142.108 457.572 141.684 455.742 139.465C455.194 138.799 454.677 138.178 454.287 137.715C454.093 137.483 453.93 137.291 453.809 137.15C453.748 137.08 453.699 137.023 453.66 136.978C453.621 136.934 453.618 136.925 453.551 136.865C453.477 136.799 453.437 136.775 453.348 136.711C453.259 136.647 453.143 136.567 453.006 136.473C452.733 136.284 452.379 136.043 452.008 135.795L450.664 134.896C450.629 134.873 450.591 134.855 450.551 134.842L448.897 134.297C448.44 134.146 448.025 134.012 447.719 133.916C447.566 133.868 447.441 133.828 447.35 133.801C447.304 133.787 447.269 133.778 447.236 133.769C447.22 133.765 447.205 133.76 447.182 133.756C447.17 133.754 447.159 133.751 447.127 133.748C447.111 133.747 447.047 133.748 447.047 133.748Z" fill="#F1A546"/>
<path d="M457.576 119.721C457.569 119.721 457.562 119.721 457.543 119.723C457.534 119.723 457.494 119.729 457.494 119.729C457.494 119.729 457.43 119.746 457.43 119.746C457.43 119.746 457.236 119.863 457.236 119.863C457.236 119.864 457.349 120.639 457.35 120.639C457.35 120.639 457.382 120.654 457.389 120.656C457.402 120.662 457.406 120.664 457.41 120.666C457.419 120.67 457.426 120.673 457.434 120.676C457.45 120.682 457.471 120.688 457.498 120.698C457.552 120.717 457.63 120.744 457.732 120.78C457.937 120.851 458.237 120.955 458.625 121.089C459.401 121.356 460.523 121.741 461.908 122.216C464.678 123.165 468.499 124.473 472.705 125.911C476.911 127.349 480.738 128.657 483.516 129.606C484.905 130.081 486.032 130.465 486.813 130.731C487.203 130.864 487.506 130.969 487.713 131.04C487.817 131.075 487.897 131.102 487.951 131.12C487.978 131.129 487.999 131.136 488.014 131.141C488.022 131.144 488.027 131.145 488.033 131.147C488.036 131.148 488.04 131.149 488.045 131.151C488.048 131.152 488.05 131.151 488.057 131.153C488.063 131.155 488.126 131.168 488.133 131.169C488.147 131.168 488.344 131.148 488.344 131.147C488.344 131.147 488.465 131.089 488.465 131.089C488.465 131.089 488.512 131.052 488.527 131.038C488.542 131.024 488.553 131.011 488.563 131.001C488.599 130.959 488.609 130.94 488.619 130.923C488.64 130.888 488.648 130.868 488.658 130.847C488.678 130.804 488.695 130.761 488.715 130.71C488.755 130.608 488.801 130.479 488.848 130.347C488.894 130.214 488.939 130.078 488.975 129.966C488.992 129.91 489.007 129.86 489.02 129.813C489.032 129.767 489.051 129.785 489.051 129.616C489.051 129.616 489.033 129.491 489.033 129.491C489.033 129.491 489.012 129.425 489.012 129.425C489.012 129.425 488.988 129.377 488.98 129.364C488.965 129.338 488.956 129.327 488.949 129.317C488.935 129.299 488.927 129.29 488.92 129.282C488.906 129.266 488.894 129.253 488.879 129.237C488.85 129.206 488.814 129.169 488.766 129.12C488.67 129.023 488.533 128.886 488.365 128.72C488.03 128.388 487.569 127.936 487.063 127.442L485.223 125.649C485.169 125.597 485.104 125.557 485.033 125.534L483.201 124.936C482.193 124.608 480.78 124.147 480.059 123.911C479.336 123.675 477.184 122.975 475.275 122.356L471.807 121.231C471.785 121.225 471.763 121.219 471.74 121.216L468.303 120.622L464.865 120.028C464.845 120.024 464.824 120.022 464.803 120.02L461.211 119.864C460.222 119.821 459.321 119.784 458.666 119.758C458.339 119.746 458.072 119.736 457.887 119.729C457.794 119.726 457.722 119.722 457.67 119.721C457.644 119.721 457.624 119.721 457.606 119.721C457.597 119.721 457.59 119.72 457.576 119.721Z" fill="#F1A546"/>
<path d="M482.969 97.8242C482.895 97.8169 482.856 97.8237 482.824 97.8281C482.76 97.837 482.73 97.8477 482.699 97.8574C482.637 97.8768 482.581 97.8977 482.508 97.9277C482.361 97.9877 482.146 98.0824 481.818 98.2305C481.162 98.5267 480.059 99.0361 478.228 99.8867C476.992 100.461 475.663 101.076 475.295 101.242C474.905 101.419 474.26 101.726 473.838 101.937C473.193 102.26 471.366 103.183 469.695 104.029C468.86 104.453 468.064 104.857 467.475 105.156C467.18 105.306 466.936 105.428 466.766 105.516C466.68 105.559 466.614 105.595 466.566 105.619C466.543 105.631 466.523 105.641 466.508 105.648C466.501 105.652 466.494 105.655 466.486 105.66C466.482 105.662 466.478 105.665 466.471 105.67C466.467 105.672 466.462 105.674 466.453 105.68C466.444 105.686 466.393 105.725 466.393 105.725C466.374 105.74 466.352 105.759 466.324 105.79C466.31 105.805 466.296 105.824 466.279 105.848C466.263 105.872 466.227 105.939 466.227 105.94C466.226 105.941 466.182 106.084 466.182 106.084C466.182 106.085 466.186 106.285 466.186 106.286C466.186 106.286 466.263 106.486 466.264 106.487C466.264 106.487 466.382 106.621 466.383 106.622C466.383 106.622 466.459 106.676 466.49 106.692C466.522 106.708 466.549 106.719 466.572 106.727C466.619 106.743 466.652 106.749 466.68 106.752C466.734 106.76 466.765 106.758 466.793 106.758C466.905 106.756 466.971 106.742 467.082 106.723C467.305 106.685 467.653 106.616 468.199 106.501L469.373 106.253C469.411 106.245 469.447 106.233 469.482 106.217L473.559 104.438C477.331 102.791 479.013 102.063 479.947 101.624C480.881 101.185 481.087 101.017 481.76 100.575L482.984 99.7702C483.094 99.6985 483.175 99.5917 483.215 99.4675L483.354 99.0358C483.396 98.905 483.43 98.7838 483.455 98.6784C483.468 98.6257 483.478 98.5784 483.486 98.5202C483.49 98.4911 483.495 98.4616 483.494 98.405C483.494 98.3766 483.494 98.3417 483.481 98.2819C483.475 98.252 483.465 98.2148 483.444 98.1667C483.433 98.1426 483.399 98.087 483.399 98.0866C483.398 98.0862 483.323 97.9931 483.322 97.9928C483.322 97.9923 483.114 97.8584 483.113 97.8581C483.113 97.8578 483.006 97.8278 482.969 97.8242Z" fill="#F1A546"/>
<path d="M483.367 74.168C483.367 74.1679 483.287 74.1698 483.271 74.1719C483.256 74.174 483.246 74.1763 483.238 74.1778C483.222 74.1808 483.213 74.1833 483.203 74.1856C483.183 74.1902 483.163 74.1953 483.141 74.2012C483.095 74.2131 483.038 74.2295 482.965 74.25C482.818 74.2912 482.611 74.3493 482.361 74.4219C481.861 74.5672 481.181 74.7671 480.441 74.9883L477.756 75.791C477.737 75.7972 477.719 75.8043 477.701 75.8125L472.982 77.8281C468.64 79.683 466.208 80.8086 464.096 81.9453C463.943 82.0276 462.297 82.8675 460.545 83.7539C457.807 85.1389 457.247 85.4411 456.775 85.8321C456.639 85.9454 456.514 86.05 456.42 86.1328C456.373 86.1743 456.334 86.2101 456.301 86.2422C456.284 86.2583 456.271 86.2724 456.25 86.2949C456.24 86.3062 456.228 86.3175 456.207 86.3457C456.197 86.3598 456.183 86.3777 456.164 86.4141C456.154 86.4323 456.131 86.4919 456.131 86.4922C456.131 86.4925 456.101 86.6619 456.101 86.6621C456.101 86.8589 456.217 87.0235 456.328 87.1035C456.439 87.1836 456.551 87.211 456.66 87.211C456.66 87.211 456.793 87.1935 456.793 87.1934C456.793 87.1933 456.825 87.1847 456.834 87.1817C456.851 87.1757 456.858 87.1729 456.865 87.1699C456.879 87.1641 456.887 87.1603 456.896 87.1563C456.914 87.1482 456.932 87.1399 456.955 87.1289C457 87.107 457.062 87.0761 457.14 87.0371C457.298 86.9592 457.521 86.8467 457.795 86.709C458.342 86.4337 459.092 86.0557 459.912 85.6387C461.728 84.7153 463.576 83.8305 464.644 83.3692C465.624 82.946 467.298 82.2225 468.363 81.7637C470.765 80.729 476.558 78.2318 477.238 77.9375C477.496 77.826 478.816 77.2717 480.138 76.7207C481.239 76.2623 482.133 75.8772 482.74 75.6016C483.043 75.4638 483.272 75.3559 483.431 75.2715C483.511 75.2293 483.567 75.2016 483.648 75.1406C483.669 75.1254 483.69 75.108 483.722 75.0742C483.739 75.0573 483.758 75.0371 483.781 75.0039C483.793 74.9874 483.805 74.9664 483.818 74.9414C483.831 74.9164 483.857 74.8483 483.857 74.8477C483.857 74.847 483.879 74.7076 483.879 74.7071C483.879 74.7065 483.85 74.5298 483.849 74.5293C483.849 74.5288 483.76 74.3637 483.76 74.3633C483.759 74.3629 483.643 74.2582 483.642 74.2578C483.642 74.2575 483.572 74.2186 483.543 74.2071C483.514 74.1955 483.488 74.1867 483.467 74.1817C483.423 74.1715 483.393 74.1692 483.367 74.168Z" fill="#F1A546"/>
<path d="M235 503.5C358.988 503.5 459.5 402.988 459.5 279C459.5 155.012 358.988 54.5 235 54.5C111.012 54.5 10.5 155.012 10.5 279C10.5 402.988 111.012 503.5 235 503.5Z" fill="#EC6B70" stroke="#EC6B70"/>
<path d="M233 444.5C323.299 444.5 396.5 371.299 396.5 281C396.5 190.701 323.299 117.5 233 117.5C142.701 117.5 69.5 190.701 69.5 281C69.5 371.299 142.701 444.5 233 444.5Z" fill="#F1B346" stroke="#F1B346"/>
<path d="M114.869 395.748C114.231 395.904 113.856 396.272 113.496 396.594C110.424 399.338 108.076 400.055 103.57 399.594C102.154 399.449 101.004 399.395 100.135 399.441C99.7003 399.465 99.3424 399.502 98.9824 399.617C98.8024 399.675 98.6149 399.746 98.4004 399.924C98.1859 400.102 97.9414 400.479 97.9414 400.879C97.9414 401.343 98.0533 401.499 98.1641 401.764C98.2748 402.029 98.419 402.319 98.5918 402.641C98.9373 403.284 99.3975 404.044 99.9082 404.797C103.08 409.471 104.615 415.993 104.574 425.32C104.533 434.636 103.305 441.721 100.066 451.303C99.4867 453.018 99.0209 454.624 98.7305 455.865C98.5853 456.486 98.4834 457.011 98.4336 457.447C98.4087 457.666 98.3949 457.858 98.4082 458.074C98.4215 458.29 98.3327 458.6 98.8457 459.031C99.1474 459.285 99.7394 459.707 100.736 460.428C101.733 461.149 103.033 462.079 104.396 463.049C135.116 484.896 172.958 499.304 210.252 503.352C221.503 504.573 245.223 504.799 255.473 503.775C285.797 500.747 313.282 492.686 338.91 479.293C345.239 475.986 349.948 473.336 353 471.367C354.526 470.383 355.632 469.58 356.369 468.883C356.738 468.534 357.024 468.228 357.229 467.807C357.331 467.596 357.418 467.338 357.404 467.018C357.391 466.697 357.23 466.333 357.004 466.107C357.131 466.234 357.012 466.113 356.934 465.896C356.855 465.679 356.766 465.358 356.686 464.98C356.524 464.226 356.392 463.242 356.342 462.264C356.248 460.451 356.141 459.236 355.451 458.033C354.762 456.83 353.656 455.811 351.678 454C349.345 451.864 344.917 448.307 341.725 445.996C335.617 441.576 328.716 434.153 323.307 426.137L319.799 420.941C319.655 420.73 319.44 420.577 319.192 420.513C318.944 420.449 318.682 420.477 318.453 420.592L307.66 426.025C290.722 434.553 273.029 440.279 257.139 442.396C253.915 442.826 252.174 443.061 250.895 443.543C249.615 444.025 248.902 444.904 248.283 445.951C244.461 452.422 231.659 459.755 216.473 463.561C210.726 465 209.356 465.082 199.092 464.678C182.865 464.038 177.819 462.865 168.975 457.682C166.032 455.957 163.979 454.042 161.43 450.604C156.241 443.604 136.006 423.972 129.396 419.578C126.458 417.625 125.085 416.268 124.813 415.324C124.676 414.853 124.709 414.407 125.004 413.719C125.299 413.03 125.88 412.15 126.736 411.072L128.902 408.344C129.067 408.136 129.148 407.874 129.128 407.61C129.108 407.346 128.989 407.098 128.795 406.918L122.563 401.131C120.28 399.012 118.831 397.671 117.766 396.836C117.233 396.418 116.797 396.121 116.34 395.92C115.883 395.719 115.348 395.631 114.869 395.748Z" fill="#36546E"/>
<path d="M276.5 364.5L273 380" stroke="#36546E"/>
<path d="M164.5 455C172.5 460.6 178.5 462.667 180.5 463C191.7 465.4 205.5 465.333 211 465C233.8 460.6 245.167 451.167 248 447C251.6 441 252.833 431.833 253 428C259.8 421.2 261.5 415.833 261.5 414C264.7 402 265.333 393.667 265 391C271 382.6 272.667 380.167 273 380" stroke="#36546E"/>
<path d="M98.0001 458C110.8 425.2 103.333 407 98.0001 402C97.6667 402.667 97.2001 403.3 98.0001 400.5C99.0001 397 105.5 403 112 398C117.2 394 132.5 373 139.5 363C150.3 356.6 155.667 351.667 157 350L183.5 308.5L186.5 303C186.5 281.4 194.5 271 198.5 268.5C203.3 261.7 212.833 257.333 217 256C228 250 226 254.5 231 247.5C235 241.9 241.667 231.5 244.5 227C244.018 226.035 243.627 225.041 243.317 224.032C242.48 221.311 242.223 218.481 242.306 215.816C242.448 211.276 243.576 207.217 244.5 205C248.9 191.4 253.333 186.333 255 185.5C261.5 177.5 264 170.5 266 167.5C268 164.5 272 162 274.5 161.5C276.5 161.1 278.333 161.333 279 161.5C280.167 160.5 282.7 158.4 283.5 158C284.3 157.6 289.833 158.833 292.5 159.5C299 161.5 301 164.5 301.5 167.5C301.9 169.9 305.333 170.833 307 171C309.883 169.208 314.311 166.338 318.576 163.339C323.435 159.924 328.083 156.343 330 154C333.6 149.6 357.167 127.833 368.5 117.5C375.3 108.3 377 104.667 377 104" stroke="#374E6B"/>
<path d="M387 113C381 123 376.333 130.5 375 132.5L360.5 150L343.5 168.5L323.5 188L305.5 201C303.5 202 300.7 203.7 305.5 202.5C310.3 201.3 323.167 198 329 196.5L353.5 188L375 178.5C378.833 177 388.9 172.9 398.5 168.5C408.1 164.1 420.667 160 425 158.5" stroke="#2F536D"/>
<path d="M164.5 455L157 445L151.5 439.5L146 434L139 427.5L135.5 424.5L132 421.5L128.5 419L125.5 417.5L124.5 416.5V414.5L125.5 412L126.627 410.761L127.102 410.238L130.5 406.5L135.5 401.5L144 393L150.5 387L161.5 379L165.5 376L169.5 373.5L173.5 371L177 368.5L182.5 364.5L185.5 362L189.5 358.5L194 355L196.5 352.5L208.64 341.331M208.64 341.331L209 341M208.64 341.331L215 335L220.5 330L224 326.5L226 325.5L229.5 326L233 326.5L236.5 327L240 327.5L246.5 328.5L251 329L256 329.5L262 330L266 330.5L271 331H276.5H280.5H284.5H287.5H289.5L290.5 331.5L291 333V335L289.5 338M289.533 337.934L287 341.5L285.5 343.5L285 344.5L284.5 345.5L283 348.5L282 350.5L281.5 351.5L280.5 353.5L279.5 355.5L276.5 364.5" stroke="#36546E"/>
<path d="M273 271.5C262.2 282.3 260.5 285.667 261 286" stroke="#EC6A72"/>
<path d="M357 467C355 461.4 356.167 459.333 357 459L347 450C335.8 442 335 441.333 336 442L327.5 432.5L321 423L313 412.5L308.5 407C296.5 402.2 289.167 398.333 287 397C282.2 391.4 285 386.667 287 385L298.5 369L310.5 354C313.667 350.667 321 342.8 325 338C329 333.2 330 327 330 324.5C330 316.1 326.667 311.667 325 310.5L310.5 304L291 296.5L269 289.5C260.2 285.9 255.333 284 254 283.5L241.5 276C240.5 275.667 237.7 274.6 234.5 273C231.3 271.4 216.833 269.667 210 269H198" stroke="#36546E"/>
<path d="M220.966 256.331C231.638 246.722 237.681 236.038 234.466 232.467C231.25 228.895 219.993 233.789 209.322 243.397C198.65 253.006 192.607 263.69 195.822 267.261C199.038 270.833 210.295 265.939 220.966 256.331Z" fill="#EFB343"/>
<path d="M240.845 231.31C238.419 229.482 232.546 233.184 227.726 239.58C222.907 245.976 220.967 252.642 223.393 254.47C225.819 256.298 231.692 252.596 236.511 246.2C241.331 239.804 243.271 233.138 240.845 231.31Z" fill="#EFB343"/>
<path d="M245 227H241V234H245V227Z" fill="#F1B346"/>
<path d="M199.5 266C217 250 225 254 228.5 250C231.3 246.8 240.667 232.333 245 225.5" stroke="#EC6A72"/>
<path d="M198.5 268.5C198.5 266.9 199.167 266.167 199.5 266" stroke="#EC6A72"/>
<path d="M427.5 162.5C419.261 168.725 411.51 174.036 405.016 178.268C397.322 183.282 391.392 186.783 388.5 188.5L363.5 203L350 209.5L334 217L321 221.5C315.4 223.1 312.333 228.167 311.5 230.5L305 241L297.5 251L288.5 263.5L284.5 268.5C280.9 272.5 275.333 272.167 273 271.5C280.2 248.7 284.5 245 285.5 243.5C268.3 243.5 262.333 240.167 261.5 238.5C256.5 231.5 257 232.5 256.5 226.5C256 220.5 257.5 219 256.5 217C255.7 215.4 254.5 215.333 254 215.5L251 217L244.5 226.5" stroke="#395471"/>
<path d="M272.413 271.33C272.404 271.324 272.379 271.319 272.358 271.319L272.319 271.319L272.399 271.239L272.48 271.159L273.203 268.982C273.601 267.785 273.994 266.607 274.076 266.364C274.447 265.273 274.537 265.011 274.794 264.275C275.377 262.606 275.987 260.936 276.589 259.362L276.647 259.21H276.684H276.721L276.698 259.268C276.52 259.719 275.905 261.367 275.554 262.337C274.642 264.855 273.646 267.798 272.739 270.65L272.557 271.224L272.499 271.282C272.436 271.346 272.437 271.346 272.413 271.33Z" fill="#EC6A72"/>
<path d="M281.869 247.791C282.132 247.331 282.565 246.625 282.876 246.152C283.072 245.856 283.21 245.645 283.387 245.379C283.48 245.237 283.604 245.051 283.66 244.965C283.717 244.879 283.857 244.666 283.972 244.492C284.087 244.318 284.183 244.172 284.185 244.167C284.19 244.154 284.196 244.155 283.141 244.101C282.107 244.049 281.783 244.032 281.277 244.004C278.364 243.842 275.832 243.633 273.676 243.377C273.521 243.358 273.496 243.353 273.494 243.342C273.492 243.333 273.496 243.328 273.504 243.328C273.511 243.328 273.629 243.342 273.764 243.359C275.231 243.543 276.845 243.692 278.504 243.796C280.231 243.905 281.891 243.966 283.848 243.993C284.196 243.998 284.481 244.002 284.482 244.003C284.482 244.004 284.439 244.06 284.385 244.129C284.229 244.33 283.882 244.794 283.742 244.988C283.181 245.768 282.539 246.767 282.018 247.672L281.948 247.793L281.907 247.795C281.884 247.796 281.867 247.795 281.869 247.791Z" fill="#EC6A72"/>
<path d="M271.695 243.113C271.659 243.107 271.536 243.088 271.422 243.07C267.498 242.465 264.725 241.597 262.703 240.341C262.227 240.046 261.93 239.81 261.594 239.463C261.516 239.382 261.453 239.313 261.453 239.309C261.453 239.305 261.509 239.356 261.576 239.423C261.824 239.667 262.063 239.861 262.387 240.08C264.204 241.313 267.347 242.338 271.359 243.008C271.563 243.042 271.742 243.072 271.756 243.074C271.778 243.078 271.781 243.082 271.781 243.102C271.781 243.116 271.777 243.125 271.771 243.124C271.766 243.124 271.732 243.118 271.695 243.113Z" fill="#EC6A72"/>
<path d="M273.446 243.348C273.434 243.346 273.229 243.32 272.99 243.289C272.561 243.234 271.872 243.14 271.813 243.128C271.792 243.124 271.783 243.115 271.783 243.099C271.783 243.081 271.788 243.078 271.808 243.083C271.887 243.102 273.195 243.291 273.425 243.317C273.471 243.322 273.492 243.329 273.492 243.34C273.492 243.355 273.489 243.355 273.446 243.348Z" fill="#EC6A72"/>
<path d="M261.379 239.229C261.108 238.926 260.748 238.464 260.266 237.801C260.035 237.483 259.861 237.241 259.458 236.672C258.412 235.195 257.822 234.303 257.428 233.602C256.913 232.686 256.614 231.904 256.41 230.946C256.391 230.855 256.375 230.779 256.375 230.777C256.375 230.775 256.382 230.773 256.39 230.773C256.403 230.773 256.407 230.786 256.422 230.865C256.646 232.056 257.071 232.995 258.069 234.507C258.502 235.164 258.914 235.752 260.31 237.703C260.726 238.285 261.08 238.785 261.096 238.813C261.166 238.938 261.295 239.117 261.404 239.24C261.432 239.271 261.453 239.299 261.451 239.301C261.449 239.303 261.416 239.271 261.379 239.229Z" fill="#EC6A72"/>
<path d="M256.375 230.762C256.375 230.76 256.357 230.66 256.336 230.54C256.181 229.677 256.056 228.37 255.907 226.055C255.846 225.119 255.842 225.017 255.833 224.25C255.822 223.248 255.845 222.759 255.961 221.617C255.991 221.325 256.04 220.847 256.069 220.555C256.219 219.088 256.247 218.266 256.164 217.833C256.111 217.554 255.954 217.238 255.702 216.898C255.317 216.38 254.871 216.028 254.602 216.029C254.379 216.03 253.646 216.358 252.147 217.127L251.724 217.344L251.592 217.343L251.461 217.342L252.834 216.654C254.123 216.009 254.214 215.966 254.314 215.955C254.688 215.915 255.096 216.073 255.442 216.392C255.655 216.587 255.858 216.867 256.024 217.19C256.268 217.667 256.356 218.089 256.338 218.695C256.328 219.056 256.309 219.244 256.203 220.039C255.962 221.856 255.911 222.469 255.896 223.789C255.884 224.759 255.913 225.55 256 226.617C256.017 226.823 256.066 227.446 256.11 228C256.227 229.499 256.283 230.059 256.364 230.551C256.384 230.669 256.394 230.766 256.387 230.766C256.38 230.766 256.375 230.764 256.375 230.762Z" fill="#EC6A72"/>
<path d="M244.796 230.294C244.719 230.214 244.643 230.132 244.564 230.053C244.559 230.048 244.55 230.05 244.544 230.053C244.542 230.054 244.563 230.083 244.563 230.105" fill="#EC6A72"/>
<path d="M259.867 285.257C258.444 284.684 255.638 283.58 254.648 283.203L254.227 283.042L248.691 279.722C245.647 277.896 243.159 276.398 243.163 276.394C243.177 276.381 244.41 277.086 245.664 277.825C246.051 278.052 247.302 278.799 248.445 279.484C251.161 281.112 251.999 281.605 252.969 282.144C254.039 282.74 254.947 283.189 255.915 283.602C256.655 283.917 259.454 285.025 260.085 285.252L260.255 285.314L260.315 285.256C260.379 285.193 260.389 285.193 260.482 285.264L260.518 285.291L260.489 285.388C260.474 285.441 260.454 285.484 260.445 285.484C260.436 285.483 260.177 285.381 259.867 285.257Z" fill="#EC6A72"/>
<path d="M241.029 275.298C239.215 274.631 236.866 273.61 234.92 272.643C234.756 272.561 234.57 272.472 234.508 272.445C234.445 272.418 234.399 272.395 234.405 272.393C234.411 272.391 234.585 272.457 234.792 272.539C235.316 272.748 235.633 272.885 236.268 273.175C237.564 273.769 239.068 274.421 240.015 274.8C240.383 274.947 240.589 275.037 240.943 275.206C241.417 275.432 241.428 275.444 241.029 275.298Z" fill="#EC6A72"/>
<path d="M234.318 272.368C232.779 271.732 229.378 271.01 224.337 270.25L224.236 270.234V270.197C224.236 270.176 224.237 270.159 224.239 270.159C224.241 270.159 224.408 270.184 224.61 270.214C228.791 270.844 231.203 271.337 233.218 271.974C233.62 272.101 234.426 272.383 234.406 272.39C234.403 272.391 234.401 272.394 234.403 272.397C234.408 272.405 234.401 272.403 234.318 272.368Z" fill="#EC6A72"/>
<path d="M224.213 270.232C224.209 270.23 223.737 270.161 223.318 270.1C222.41 269.968 221.287 269.812 220.337 269.687C220.169 269.665 220.033 269.646 220.035 269.645C220.037 269.644 220.069 269.646 220.106 269.65C220.143 269.653 220.263 269.664 220.373 269.674C220.483 269.684 220.621 269.696 220.68 269.701C220.812 269.713 221.126 269.741 221.361 269.762C221.725 269.794 221.624 269.781 222.666 269.93C223.208 270.007 223.539 270.055 223.977 270.119L224.236 270.158L224.235 270.196C224.234 270.233 224.233 270.234 224.225 270.234C224.22 270.234 224.215 270.233 224.213 270.232Z" fill="#EC6A72"/>
<path d="M201.09 268.448C201.137 268.413 201.312 268.38 201.702 268.332C201.997 268.297 202.258 268.298 204.63 268.35C205.437 268.367 205.848 268.386 206.243 268.424L206.773 268.474L203.912 268.476C201.477 268.478 201.056 268.473 201.09 268.448Z" fill="#EC6A72"/>
<path d="M199.161 268.462C199.161 268.452 199.268 268.424 199.399 268.398L199.636 268.352L199.725 268.397C199.798 268.435 199.849 268.442 200.025 268.439C200.142 268.437 200.262 268.444 200.291 268.456C200.326 268.47 200.15 268.477 199.752 268.478C199.427 268.479 199.161 268.471 199.161 268.462Z" fill="#36546E"/>
<path d="M276.856 365.258C276.865 365.228 276.901 365.077 276.936 364.922C276.97 364.767 277.672 362.623 278.495 360.156L279.991 355.672L282.965 349.725L285.939 343.778L286.648 342.834C287.038 342.315 287.946 341.062 288.666 340.049L289.975 338.207L290.658 336.846C291.033 336.097 291.341 335.514 291.342 335.551C291.345 335.666 291.162 336.236 290.999 336.617C290.707 337.299 290.242 338.084 289.348 339.406C288.563 340.567 288.269 341.016 287.791 341.783C284.453 347.141 280.254 355.552 278.813 359.766C278.464 360.787 277.909 362.71 277.252 365.18L277.216 365.313H277.028C276.863 365.313 276.842 365.306 276.856 365.258Z" fill="#36546E"/>
<path d="M273.625 379.551C273.625 379.539 276.825 365.351 276.835 365.32C276.838 365.31 276.913 365.306 277.031 365.309C277.218 365.314 277.222 365.315 277.215 365.349C277.211 365.367 277.129 365.685 277.032 366.055C276.821 366.862 276.308 368.903 276.11 369.727C275.832 370.88 275.63 371.751 274.748 375.602C274.259 377.741 273.854 379.508 273.849 379.527C273.841 379.56 273.831 379.563 273.733 379.563C273.673 379.563 273.625 379.557 273.625 379.551Z" fill="#36546E"/>
<path d="M265.549 391.438C265.538 391.275 265.534 391.132 265.541 391.121C265.548 391.111 265.979 390.504 266.5 389.773C267.021 389.043 268.164 387.44 269.039 386.211C272.156 381.835 272.776 380.983 273.178 380.524C273.231 380.465 273.262 380.42 273.249 380.425C273.23 380.432 273.2 380.386 273.12 380.225C273.063 380.11 273.021 380.016 273.027 380.016C273.033 380.016 273.13 380.037 273.241 380.063C273.352 380.088 273.455 380.109 273.47 380.109C273.491 380.109 273.503 380.082 273.523 379.988C273.538 379.922 273.566 379.801 273.584 379.719L273.619 379.57L273.73 379.565L273.841 379.56L273.826 379.628C273.73 380.06 273.681 380.248 273.658 380.281C273.643 380.302 271.944 382.661 269.883 385.522C267.384 388.992 266.131 390.744 266.123 390.78C266.116 390.811 266.092 391.022 266.07 391.249C266.048 391.477 266.027 391.679 266.022 391.698C266.015 391.733 266.01 391.734 265.792 391.734H265.569L265.549 391.438Z" fill="#36546E"/>
<path d="M265.156 398.434C265.156 398.428 265.167 398.337 265.18 398.233C265.463 395.923 265.61 393.701 265.579 392.213C265.575 392.003 265.568 391.81 265.566 391.783L265.561 391.734H265.777C265.911 391.734 265.999 391.731 266.008 391.726C266.021 391.719 266.023 391.721 266.023 391.733C266.023 391.758 265.528 396.606 265.488 396.968C265.44 397.411 265.334 398.3 265.316 398.416L265.311 398.445H265.233C265.17 398.445 265.156 398.443 265.156 398.434Z" fill="#36546E"/>
<path d="M284.892 395.059C284.738 394.747 284.559 394.373 284.495 394.227C283.534 392.04 283.366 390.229 283.96 388.445C284.166 387.828 284.432 387.277 284.839 386.625C285.178 386.082 287.825 382.325 289.633 379.82C291.25 377.58 294.008 373.836 294.054 373.818C294.064 373.814 294.148 373.813 294.24 373.815L294.409 373.819L290.524 379.226C286.931 384.225 286.629 384.641 286.511 384.747C286.039 385.174 285.592 385.698 285.211 386.273C284.122 387.914 283.666 389.826 283.907 391.734C284.066 392.987 284.528 394.264 285.261 395.472C285.306 395.548 285.344 395.613 285.344 395.617C285.344 395.621 285.305 395.624 285.258 395.624H285.172L284.892 395.059Z" fill="#36546E"/>
<path d="M295.917 371.337C295.929 371.321 296.117 371.075 296.334 370.789C301.046 364.582 306.291 358.064 310.915 352.67C312.95 350.295 314.391 348.666 316.729 346.096C318.931 343.675 320.167 342.297 321.302 340.997L321.722 340.516H321.94C322.144 340.516 322.157 340.519 322.129 340.554C322.08 340.616 320.968 341.875 320.465 342.439C317.732 345.499 313.729 349.845 310.703 353.038L310.114 353.66L304.106 361.169L298.099 368.679L297.138 370.016L296.177 371.353L296.036 371.36C295.923 371.365 295.899 371.36 295.917 371.337Z" fill="#36546E"/>
<path d="M294.146 373.692C294.195 373.626 294.607 373.078 295.063 372.474L295.891 371.376L296.023 371.375L296.156 371.375L295.521 372.258C295.172 372.743 294.777 373.292 294.644 373.477L294.402 373.812H294.23H294.057L294.146 373.692Z" fill="#36546E"/>
<path d="M322.801 339.301C325.722 335.81 327.112 333.559 327.997 330.882C328.758 328.58 329.025 326.74 329.021 323.811C329.017 320.801 328.711 318.778 327.907 316.444C326.999 313.812 325.888 312.216 324.257 311.202C322.182 309.912 316.039 307.15 308.572 304.15C297.942 299.878 288.228 296.383 276.008 292.433C274.703 292.011 273.656 291.646 273.681 291.622C273.705 291.597 277.557 292.796 282.239 294.285L290.754 296.993L300.432 300.712L310.111 304.431L317.401 307.696C321.411 309.492 324.824 311.062 324.985 311.184C325.446 311.536 326.276 312.593 326.849 313.558C328.603 316.509 329.519 320.519 329.399 324.72C329.281 328.907 327.719 333.436 325.235 336.794C324.305 338.052 322.171 340.472 321.993 340.472C321.863 340.472 322.063 340.183 322.801 339.301Z" fill="#36546E"/>
<path d="M327.376 314.516C326.935 313.631 326.455 312.87 325.87 312.125C325.576 311.751 325.193 311.335 325.026 311.208C324.905 311.116 324.024 310.696 322.137 309.832C320.227 308.957 319.16 308.477 313.425 305.909L310.105 304.422L307.757 303.52C306.466 303.024 305.251 302.558 305.059 302.483C304.857 302.406 304.708 302.343 304.708 302.335C304.708 302.327 304.712 302.321 304.717 302.321C304.722 302.321 305.98 302.804 307.513 303.393L310.3 304.465L317.522 307.703C323.051 310.181 324.759 310.951 324.808 310.988C325.114 311.217 325.502 311.6 325.849 312.016C326.43 312.714 327.015 313.642 327.476 314.596C327.61 314.874 327.606 314.861 327.574 314.861C327.551 314.861 327.528 314.821 327.376 314.516Z" fill="#36546E"/>
<path d="M324.733 311.557C324.691 311.526 324.562 311.441 324.446 311.368C323.502 310.768 321.813 309.902 319.563 308.865C316.922 307.649 313.556 306.209 309.569 304.592C308.398 304.117 305.742 303.06 304.799 302.694C304.732 302.667 304.708 302.653 304.708 302.638C304.708 302.627 304.712 302.621 304.717 302.624C304.722 302.627 304.934 302.711 305.189 302.811C306.935 303.497 309.171 304.393 310.768 305.048C317.579 307.839 322.828 310.252 324.457 311.34C324.597 311.433 324.828 311.601 324.828 311.609C324.828 311.62 324.805 311.608 324.733 311.557Z" fill="#36546E"/>
<path d="M378.984 101.801L381.823 104.239L384.326 106.372L385.147 107.092L386.393 108.192L387.678 109.266L388.439 109.897" fill="#36546E"/>
<path d="M333.092 151.135C332.921 151.197 332.932 151.225 332.883 151.266C332.834 151.306 332.782 151.353 332.721 151.41C332.598 151.525 332.443 151.678 332.262 151.863C331.899 152.234 331.432 152.73 330.943 153.268C327.03 157.568 321.103 162.152 310.918 168.729C308.85 170.064 307.748 170.73 306.975 170.943C306.201 171.157 305.685 170.997 304.518 170.561C302.723 169.889 301.706 168.925 301.414 167.803C300.532 164.41 299.016 162.634 295.596 160.975C293.289 159.856 288.695 158.641 285.166 158.189C285.165 158.189 285.165 158.189 285.164 158.189L283.898 158.029C283.84 158.022 283.782 158.026 283.725 158.041C283.669 158.057 283.616 158.083 283.57 158.119L281.252 159.937L279.06 161.656L277.123 161.59C274.562 161.501 273.025 161.938 270.715 163.416C269.118 164.438 268.07 165.242 267.035 166.566C266 167.891 264.981 169.712 263.342 172.824C260.306 178.586 256.86 183.747 254.603 185.982C252.483 188.083 251.007 190.251 249.135 193.988C246.647 198.955 243.614 207.474 242.957 211.41C242.493 214.193 242.422 218.693 242.828 220.969C243.007 221.974 243.264 223.073 243.502 223.93C243.621 224.358 243.733 224.724 243.836 224.998C243.887 225.135 243.934 225.248 243.99 225.35C244.018 225.401 244.046 225.449 244.1 225.51C244.153 225.57 244.253 225.696 244.496 225.682C244.497 225.682 244.584 225.668 244.613 225.658C244.642 225.648 244.665 225.638 244.682 225.629C244.716 225.611 244.734 225.598 244.75 225.586C244.781 225.562 244.798 225.545 244.814 225.529C244.846 225.497 244.871 225.469 244.9 225.434C244.959 225.363 245.031 225.272 245.119 225.156C245.294 224.925 245.532 224.599 245.818 224.197C246.391 223.394 247.157 222.289 247.98 221.076L250.902 216.773L252.605 215.965C253.646 215.471 254.331 215.272 254.793 215.301C255.255 215.33 255.582 215.54 256.055 216.102C256.59 216.738 256.814 217.07 256.914 217.705C257.014 218.34 256.959 219.323 256.793 221.084C256.351 225.765 256.713 230.271 257.844 232.57C258.41 233.722 259.42 235.262 260.441 236.635C261.463 238.008 262.431 239.176 263.139 239.66C264.676 240.711 267.444 241.55 270.865 242.176C274.286 242.802 278.345 243.187 282.373 243.209C283.489 243.215 284.322 243.218 284.904 243.25C285.429 243.279 285.677 243.357 285.746 243.381C285.739 243.401 285.746 243.388 285.732 243.416C285.628 243.625 285.357 244.001 284.99 244.498C281.437 249.317 278.547 255.657 274.576 267.279C274.154 268.516 273.871 269.417 273.715 270.041C273.637 270.353 273.59 270.593 273.576 270.799C273.569 270.902 273.566 270.995 273.594 271.111C273.621 271.228 273.711 271.416 273.912 271.498C274.204 271.617 274.519 271.636 274.949 271.656C275.379 271.677 275.892 271.675 276.424 271.654C277.487 271.613 278.604 271.507 279.307 271.32C281.885 270.634 283.271 269.602 285.793 266.508C287.091 264.916 290.118 260.882 292.549 257.508C294.973 254.142 298.768 248.966 300.976 246.014C304.675 241.071 310.101 232.751 311.791 229.404C313.185 226.643 315.135 224.413 317.402 222.963C318.185 222.462 318.525 222.241 319.736 221.768C320.948 221.294 323.01 220.585 327.119 219.174C332.262 217.408 335.32 216.163 340.789 213.607C355.359 206.798 363.722 202.657 368.473 199.895C369.814 199.115 371.044 198.393 371.949 197.861C372.401 197.595 372.773 197.377 373.035 197.221C373.166 197.143 373.269 197.081 373.344 197.035C373.381 197.012 373.411 196.994 373.435 196.979C373.46 196.963 373.439 196.986 373.523 196.914C373.695 196.765 373.708 196.558 373.695 196.447C373.683 196.336 373.653 196.254 373.615 196.16C373.54 195.972 373.422 195.745 373.24 195.426C372.876 194.788 372.257 193.796 371.277 192.262C370.537 191.102 369.162 189.064 367.92 187.256C367.299 186.352 366.711 185.507 366.252 184.859C366.022 184.535 365.824 184.26 365.67 184.051C365.515 183.841 365.425 183.715 365.326 183.611C365.117 183.391 365.003 183.463 364.935 183.467C364.867 183.47 364.816 183.48 364.76 183.492C364.647 183.517 364.519 183.554 364.361 183.605C364.045 183.708 363.617 183.866 363.1 184.068C362.064 184.473 360.67 185.055 359.162 185.723C355.31 187.428 350.083 189.391 341.23 192.457C329.27 196.599 328.231 196.912 316.365 199.924C312.957 200.789 309.769 201.575 307.381 202.145C306.186 202.43 305.191 202.661 304.471 202.82C304.11 202.9 303.818 202.961 303.607 203.002C303.396 203.043 303.214 203.059 303.279 203.059C302.937 203.059 302.77 202.947 302.725 202.883C302.679 202.819 302.649 202.752 302.787 202.533C302.763 202.571 302.827 202.489 302.922 202.406C303.016 202.324 303.149 202.219 303.305 202.104C303.616 201.873 304.021 201.598 304.435 201.346C304.909 201.058 306.236 200.141 308.07 198.85C309.904 197.558 312.219 195.907 314.574 194.207L323.133 188.029C323.15 188.017 323.166 188.003 323.182 187.988L329.787 181.59C334.733 176.798 339.115 172.487 342.262 169.326C343.835 167.746 345.1 166.454 345.974 165.531C346.412 165.07 346.75 164.701 346.986 164.43C347.104 164.294 347.195 164.185 347.265 164.092C347.3 164.045 347.33 164.002 347.359 163.953C347.388 163.904 347.441 163.886 347.441 163.676C347.441 163.499 347.39 163.432 347.349 163.357C347.309 163.283 347.261 163.215 347.205 163.141C347.093 162.992 346.945 162.821 346.76 162.619C346.388 162.215 345.87 161.695 345.246 161.096C343.999 159.897 342.336 158.382 340.652 156.898C338.969 155.415 337.267 153.963 335.939 152.893C335.275 152.357 334.706 151.917 334.271 151.611C334.054 151.458 333.872 151.34 333.715 151.254C333.636 151.211 333.565 151.175 333.482 151.146C333.399 151.118 333.307 151.057 333.092 151.135Z" fill="#395471"/>
<path d="M377.34 104.492C377.266 104.506 377.196 104.535 377.135 104.579C377.074 104.622 377.023 104.679 376.986 104.744L375.824 106.809C374.541 109.091 372.862 111.641 370.254 115.264C368.889 117.159 367.447 118.652 363.18 122.561C357.952 127.348 350.445 134.343 344.244 140.172C341.144 143.086 338.369 145.709 336.369 147.621C335.369 148.577 334.563 149.355 334.004 149.904C333.724 150.179 333.507 150.396 333.355 150.553C333.28 150.631 333.221 150.694 333.174 150.748C333.15 150.775 333.13 150.797 333.105 150.83C333.093 150.846 333.08 150.864 333.06 150.898C333.05 150.915 333.039 150.937 333.025 150.973C333.011 151.008 332.99 151.159 332.99 151.16C332.99 151.16 333.008 151.293 333.008 151.293C333.008 151.293 333.025 151.348 333.033 151.367C333.05 151.405 333.063 151.426 333.074 151.443C333.096 151.477 333.111 151.492 333.123 151.506C333.146 151.533 333.162 151.551 333.18 151.568C333.215 151.603 333.255 151.638 333.305 151.682C333.403 151.769 333.538 151.886 333.705 152.025C334.038 152.303 334.493 152.673 334.994 153.072C337.376 154.972 342.837 159.691 345.152 161.852C345.669 162.334 346.143 162.773 346.492 163.094C346.667 163.254 346.809 163.384 346.912 163.477C346.963 163.523 347.005 163.558 347.037 163.586C347.053 163.6 347.066 163.612 347.082 163.625C347.09 163.631 347.098 163.637 347.113 163.648C347.121 163.654 347.13 163.661 347.148 163.672C347.157 163.678 347.187 163.693 347.187 163.693C347.188 163.693 347.291 163.732 347.291 163.732C347.291 163.732 347.609 163.711 347.609 163.711C347.609 163.711 347.691 163.67 347.691 163.67C347.692 163.67 347.732 163.641 347.742 163.633C347.761 163.617 347.769 163.611 347.777 163.604C347.792 163.589 347.802 163.577 347.816 163.563C347.844 163.534 347.88 163.498 347.926 163.451C348.016 163.357 348.144 163.219 348.308 163.043C348.638 162.691 349.112 162.183 349.693 161.555C350.856 160.299 352.453 158.566 354.205 156.658C357.72 152.83 363.804 145.829 367.746 141.076C373.963 133.58 375.323 131.783 377.904 127.645C380.044 124.214 382.238 120.631 383.9 117.871C384.731 116.491 385.428 115.317 385.92 114.471C386.165 114.047 386.36 113.708 386.496 113.459C386.564 113.335 386.616 113.233 386.656 113.15C386.676 113.109 386.694 113.074 386.711 113.033C386.727 112.993 386.76 113.003 386.76 112.799C386.76 112.612 386.711 112.567 386.685 112.522C386.66 112.476 386.637 112.448 386.615 112.418C386.57 112.359 386.523 112.302 386.465 112.238C386.347 112.11 386.189 111.952 385.99 111.76C385.592 111.375 385.033 110.86 384.369 110.264C383.042 109.071 381.295 107.555 379.603 106.143L377.758 104.602C377.7 104.554 377.633 104.519 377.561 104.501C377.489 104.482 377.413 104.479 377.34 104.492Z" fill="#374E6B"/>
<path d="M425.084 158.883C424.918 158.88 424.899 158.907 424.789 158.936C424.679 158.965 424.539 159.006 424.367 159.059C424.023 159.163 423.554 159.312 422.99 159.498C421.862 159.87 420.351 160.386 418.701 160.959C415.402 162.104 411.551 163.48 409.117 164.402C406.838 165.266 403.071 166.807 400.725 167.838C391.588 171.853 383.17 175.471 379.297 177.049C376.786 178.071 373.35 179.533 370.504 180.773C369.081 181.393 367.805 181.957 366.865 182.385C366.395 182.598 366.01 182.778 365.729 182.914C365.588 182.982 365.473 183.039 365.385 183.086C365.296 183.133 365.266 183.132 365.158 183.232C365.055 183.327 365.031 183.438 365.025 183.508C365.019 183.577 365.028 183.625 365.037 183.67C365.055 183.759 365.084 183.835 365.121 183.922C365.195 184.096 365.304 184.306 365.447 184.555C365.733 185.052 366.148 185.694 366.633 186.379C368.572 189.117 371.819 194.059 372.691 195.594C372.963 196.071 373.093 196.351 373.389 196.543C373.537 196.639 373.753 196.668 373.912 196.629C374.071 196.589 374.188 196.519 374.314 196.439C374.409 196.38 375.457 195.763 376.975 194.879C378.492 193.994 380.516 192.818 382.68 191.564C399.465 181.835 412.675 173.255 424.598 164.338C425.285 163.824 425.919 163.35 426.385 163.002C426.618 162.828 426.808 162.685 426.943 162.584C427.079 162.483 427.181 162.406 427.162 162.42C427.262 162.348 427.308 162.241 427.322 162.172C427.336 162.103 427.331 162.057 427.326 162.017C427.316 161.939 427.297 161.886 427.275 161.828C427.232 161.712 427.171 161.586 427.094 161.441C426.939 161.151 426.721 160.794 426.488 160.437C426.256 160.081 426.01 159.728 425.799 159.457C425.693 159.321 425.598 159.208 425.508 159.115C425.463 159.069 425.419 159.028 425.365 158.988C425.311 158.948 425.26 158.885 425.084 158.883Z" fill="#395471"/>
<path d="M198.076 268.697C197.967 268.697 197.86 268.72 197.76 268.763C197.659 268.806 197.569 268.868 197.494 268.947L196.129 270.385C190.432 276.382 187.058 286.635 186.465 299.172L186.277 303.148L184.742 305.9C184.342 306.618 182.427 309.718 179.746 313.982C177.065 318.247 173.589 323.731 169.967 329.402C163.783 339.085 160.458 344.272 158.459 347.242C156.46 350.212 155.838 350.911 154.936 351.773C152.196 354.39 146.401 358.636 141.578 361.535C140.595 362.126 139.964 362.526 139.137 363.469C138.31 364.412 137.26 365.878 135.162 368.799C127.878 378.941 120.599 388.447 116.731 392.883L115.113 394.738C114.986 394.884 114.916 395.07 114.915 395.263C114.914 395.455 114.982 395.642 115.107 395.789L115.689 396.467C116.586 397.515 119.279 400.067 121.982 402.549C123.334 403.79 124.674 404.995 125.754 405.938C126.294 406.409 126.768 406.814 127.152 407.129C127.536 407.443 127.791 407.65 128.053 407.803C128.457 408.039 128.69 407.902 128.814 407.855C128.938 407.809 129.014 407.762 129.096 407.711C129.258 407.608 129.424 407.481 129.631 407.311C130.045 406.971 130.61 406.464 131.359 405.764C132.858 404.363 135.085 402.194 138.15 399.152C148.525 388.859 149.92 387.592 154.846 384.029C156.911 382.535 160.229 380.113 162.226 378.639C164.193 377.187 167.516 374.929 169.549 373.664C174.581 370.532 182.151 365.061 185.75 361.947C187.304 360.603 189.839 358.502 191.35 357.303C192.905 356.069 195.104 354.154 196.31 352.979C197.457 351.862 200.616 348.915 203.293 346.467C205.984 344.006 210.145 340.079 212.564 337.721C216.305 334.074 219.246 331.265 221.373 329.307C222.437 328.328 223.298 327.561 223.947 327.014C224.596 326.467 225.079 326.123 225.184 326.068L225.945 325.67L235.598 327.082C246.087 328.617 251.533 329.286 258.68 329.918C261.072 330.129 264.396 330.485 266.017 330.703C268.248 331.003 272.162 331.157 279.793 331.27C285.998 331.361 288.947 331.392 290.035 331.652C290.307 331.717 290.444 331.79 290.492 331.826C290.54 331.862 290.531 331.849 290.555 331.916C290.601 332.05 290.612 332.549 290.654 333.295C290.726 334.571 290.712 335.225 290.467 335.969C290.221 336.712 289.693 337.625 288.662 339.232C286.257 342.983 284.035 346.884 282.08 350.789C278.578 357.785 277.45 361.137 274.846 372.318C274.061 375.686 273.31 378.881 273.203 379.303C273.242 379.147 273.114 379.493 272.908 379.846C272.702 380.198 272.408 380.67 272.053 381.217C271.343 382.31 270.386 383.71 269.363 385.139C267.61 387.589 266.671 388.916 266.117 389.857C265.563 390.799 265.399 391.449 265.322 392.143C264.443 400.128 262.268 411.538 260.697 416.508C259.847 419.198 257.38 423.073 254.332 426.361C253.729 427.012 253.342 427.457 253.072 427.92C252.803 428.382 252.697 428.886 252.697 429.348C252.697 432.129 251.032 439.807 249.623 443.277C249.572 443.403 249.511 443.519 249.496 443.766C249.488 443.889 249.498 444.064 249.59 444.248C249.682 444.432 249.859 444.586 250.008 444.658C250.305 444.803 250.474 444.769 250.637 444.76C250.799 444.75 250.959 444.726 251.154 444.695C251.584 444.628 252.993 444.438 254.224 444.285C266.67 442.738 281.559 438.907 293.422 434.199C301.652 430.933 311.912 425.847 317.984 422.018L318.916 421.432C319.01 421.372 319.091 421.294 319.153 421.201C319.216 421.109 319.258 421.005 319.278 420.895C319.298 420.785 319.294 420.673 319.268 420.564C319.242 420.456 319.194 420.354 319.127 420.266L316.601 416.951C315.205 415.12 312.875 412.141 311.408 410.312L308.752 407.004C308.665 406.896 308.552 406.813 308.424 406.762L306.174 405.859C301.984 404.179 295.461 401.218 291.314 399.113C289.027 397.953 287.738 397.22 286.916 396.508C286.094 395.795 285.666 395.083 285.031 393.729C284.23 392.019 284.233 389.213 284.933 387.871C285.206 387.349 286.111 385.965 287.369 384.166C288.627 382.367 290.258 380.108 292.064 377.656C295.678 372.754 299.996 367.08 303.457 362.752C308.131 356.906 312.441 351.852 318.426 345.197C322.238 340.958 324.585 338.203 326.146 335.918C327.707 333.633 328.47 331.797 329.047 329.576C329.841 326.52 329.849 321.022 329.058 317.998C328.376 315.389 327.397 313.297 326.117 311.959C325.118 310.915 322.992 309.783 319.422 308.123C315.851 306.463 310.898 304.381 304.545 301.869C296.965 298.872 291.689 296.975 279.383 292.816C273.901 290.964 265.873 288.033 261.595 286.324C253.979 283.281 253.728 283.16 248.088 279.74C244.802 277.748 241.11 275.715 239.439 275.002C237.929 274.358 235.864 273.468 234.857 273.029C232.621 272.056 230.101 271.484 224.371 270.605C215.65 269.269 209.429 268.697 203.558 268.697L198.076 268.697Z" fill="#36546E"/>
<path d="M416.569 160.734C416.549 160.726 416.519 160.719 416.476 160.712L416.463 160.71L416.395 160.514C416.358 160.406 416.328 160.318 416.329 160.317C416.33 160.316 416.336 160.324 416.342 160.334C416.348 160.344 416.409 160.438 416.475 160.544C416.542 160.649 416.597 160.737 416.599 160.74C416.603 160.747 416.595 160.745 416.569 160.734Z" fill="#374E6B"/>
<path d="M306.011 171.016C305.556 170.953 304.418 170.55 303.713 170.203C302.822 169.763 302.222 169.278 301.812 168.666C301.586 168.329 301.512 168.145 301.315 167.441C300.975 166.224 300.47 165.108 299.896 164.304C299.076 163.156 298.031 162.28 296.432 161.402C295.449 160.863 294.558 160.484 293.217 160.038C291.899 159.599 290.256 159.152 288.748 158.821L288.256 158.713V158.374C288.256 158.062 288.259 158.036 288.295 158.046C288.316 158.052 288.364 158.063 288.4 158.069C288.663 158.118 290.096 158.43 290.798 158.591C292.622 159.012 293.024 159.126 294.167 159.553C298.529 161.178 301.024 163.497 301.821 166.667C301.858 166.813 301.919 167.089 301.956 167.28C302.037 167.687 302.085 167.842 302.2 168.069C302.433 168.529 302.815 168.927 303.382 169.299C304.197 169.834 305.331 170.244 306.558 170.446L306.883 170.499L307.508 170.107C310.366 168.311 313.575 166.2 316.408 164.251C322.89 159.794 327.436 156.197 329.34 154.02C329.465 153.877 329.702 153.601 329.867 153.408C330.519 152.644 331.197 151.935 333.234 149.89L334.912 148.205H335.67H336.428V151.225C336.428 154.099 336.426 154.243 336.389 154.211C336.282 154.119 335.765 153.693 335.532 153.505C333.041 151.492 333.05 151.5 333.007 151.25L332.991 151.159L332.704 151.427C332.39 151.72 331.714 152.425 330.88 153.332C327.101 157.44 321.719 161.654 312.707 167.562C308.617 170.244 307.56 170.849 306.713 170.998C306.536 171.029 306.173 171.038 306.011 171.016Z" fill="#395471"/>
<path d="M261.234 175.357C261.249 175.33 261.408 175.037 261.588 174.707C262.026 173.901 262.457 173.082 263.01 172.004C263.263 171.511 263.668 170.721 263.912 170.247C265.222 167.693 265.724 166.901 266.758 165.761C268.538 163.799 271.247 161.997 273.529 161.257C274.234 161.029 274.971 160.893 275.881 160.823C276.264 160.794 277.335 160.794 277.717 160.823C278.031 160.847 278.641 160.922 278.781 160.954L278.864 160.972L279.566 160.386C281.647 158.649 282.993 157.648 283.437 157.505C283.626 157.445 284.208 157.424 284.661 157.463C285.359 157.521 286.527 157.701 287.693 157.929L288.268 158.041L288.261 158.383C288.257 158.571 288.246 158.72 288.237 158.714C288.215 158.701 287.327 158.53 286.809 158.439C286.155 158.324 285.597 158.242 284.692 158.127C283.97 158.035 283.797 158.019 283.726 158.039C283.665 158.055 283.419 158.234 282.915 158.631C280.853 160.25 279.331 161.442 279.2 161.542L279.053 161.654L277.749 161.61C276.632 161.572 276.371 161.57 275.926 161.592C274.793 161.649 273.958 161.82 273.042 162.182C272.184 162.522 271.418 162.945 270.203 163.751C268.655 164.778 267.772 165.58 266.873 166.778C265.987 167.958 265.072 169.528 263.241 173.009C263.09 173.298 262.293 174.758 262.069 175.158L261.93 175.407H261.569H261.208L261.234 175.357Z" fill="#395471"/>
<path d="M246.019 199.279C246.239 198.706 246.742 197.479 247.056 196.75C248.737 192.843 250.576 189.565 252.301 187.399C253.106 186.389 253.973 185.541 254.544 185.206C254.642 185.149 254.801 184.976 255.086 184.617C257.167 181.997 259.144 179.056 260.812 176.101L261.203 175.409L261.555 175.407C261.748 175.407 261.906 175.413 261.906 175.423C261.906 175.47 260.862 177.255 260.271 178.218C258.478 181.141 256.71 183.64 255.331 185.203C255.21 185.34 254.864 185.706 254.562 186.015C253.251 187.361 252.427 188.375 251.514 189.765C249.977 192.105 248.385 195.309 246.813 199.226L246.615 199.718H246.232H245.849L246.019 199.279Z" fill="#395471"/>
<path d="M243.664 226.336C242.736 224.151 242.221 222.106 241.939 219.488C241.843 218.595 241.803 215.968 241.87 214.933C242.018 212.639 242.332 210.643 242.896 208.42C243.155 207.398 243.346 206.809 244.459 203.603C245.259 201.298 245.497 200.633 245.77 199.946L245.862 199.714H246.233C246.437 199.714 246.604 199.722 246.604 199.734C246.604 199.745 246.463 200.116 246.292 200.559C244.953 204.02 243.693 207.964 243.16 210.364C242.738 212.263 242.525 214.832 242.567 217.524C242.602 219.805 242.772 221.095 243.316 223.225C243.691 224.693 243.944 225.397 244.159 225.566C244.283 225.664 244.29 225.645 243.953 226.17L243.737 226.507L243.664 226.336Z" fill="#395471"/>
<path d="M345.51 162.177C343.726 160.527 340.659 157.824 338.062 155.612L336.406 154.202V151.218V148.234L335.692 148.209L334.978 148.183L337.835 145.438C344.657 138.887 354.32 129.868 364.867 120.211L368.182 117.176L369.314 115.621C372.722 110.937 375.548 106.519 376.288 104.718L376.569 104.033H376.994C377.406 104.033 377.418 104.04 377.418 104.298C377.418 104.471 377.463 104.563 377.547 104.563C377.747 104.563 383.217 109.217 385.263 111.129C386.414 112.203 386.699 112.543 386.699 112.838C386.699 113.124 385.66 114.948 383.03 119.28C379.043 125.848 376.338 130.144 375.267 131.61C373.136 134.528 370.509 137.787 365.622 143.576C362.532 147.236 357.612 152.909 356.067 154.591C355.867 154.81 355.469 155.247 355.184 155.563C354.899 155.879 353.099 157.838 351.184 159.917C347.998 163.373 347.677 163.695 347.423 163.692C347.188 163.689 346.894 163.456 345.51 162.177Z" fill="#395471"/>
<path d="M362.02 147.837C362.039 147.805 362.637 147.107 363.137 146.531C364.729 144.697 368.398 140.318 370.415 137.844C370.773 137.405 371.118 136.984 371.184 136.906C371.416 136.631 373.086 134.538 373.503 134C375.52 131.394 376.592 129.804 379.375 125.281C379.517 125.049 379.76 124.656 379.915 124.409C380.069 124.161 380.351 123.704 380.541 123.393C380.731 123.082 381.055 122.554 381.26 122.219C384.485 116.955 386.654 113.29 386.747 112.946C386.765 112.879 386.777 112.883 387.078 113.064C387.25 113.167 387.388 113.263 387.384 113.279C387.37 113.336 384.351 118.339 382.422 121.5C379.443 126.381 376.806 130.622 375.619 132.438C375.454 132.689 373.518 135.048 369.142 140.328L362.901 147.859L362.448 147.868C362.087 147.875 362 147.869 362.02 147.837Z" fill="#36546E"/>
<path d="M338.632 192.994L338.641 192.645L346 190.091L353.36 187.537L358.906 185.084C375.108 177.922 374.639 178.127 376.589 177.347C383.65 174.522 391.141 171.319 398.125 168.141C399.994 167.29 401.332 166.709 403.225 165.926C404.448 165.42 406.674 164.531 406.718 164.531C406.738 164.531 406.75 164.679 406.749 164.93L406.749 165.328L405.71 165.747C403.545 166.619 401.974 167.285 398.922 168.624C390.825 172.175 383.747 175.213 379.404 177.001C374.315 179.095 367.854 181.887 365.907 182.833C365.272 183.141 365.063 183.273 365.063 183.363C365.063 183.42 365.02 183.439 364.779 183.489C364.281 183.592 362.516 184.274 360.5 185.141C359.89 185.404 358.871 185.843 358.235 186.117C354.717 187.633 350.147 189.345 342.5 192.011C340.841 192.59 338.655 193.344 338.637 193.344C338.629 193.344 338.627 193.186 338.632 192.994Z" fill="#395471"/>
<path d="M254.584 214.898C254.279 214.898 254.073 214.986 254.039 214.996C253.918 215.034 253.79 215.079 253.652 215.133C253.377 215.24 253.062 215.38 252.74 215.533C252.74 215.534 252.74 215.535 252.74 215.535C252.455 215.672 252.133 215.816 251.869 215.934C251.606 216.051 251.366 216.151 251.361 216.152C251.039 216.27 250.774 216.461 250.555 216.695C250.335 216.929 250.147 217.201 249.881 217.557C249.333 218.292 248.521 219.466 247.186 221.42C246.305 222.708 245.513 223.898 244.939 224.785C244.653 225.228 244.422 225.593 244.254 225.873C244.212 225.943 244.186 225.994 244.152 226.053C244.117 226.068 244.125 226.044 244.076 226.076C243.86 226.222 243.713 226.388 243.594 226.533C243.344 226.838 243.091 227.223 242.721 227.809C241.625 229.542 239.569 232.749 238.658 234.143C236.959 236.745 233.514 241.925 232.863 242.863C232.432 243.485 231.656 244.608 231.135 245.367C230.035 246.969 228.429 249.091 227.977 249.592C227.57 250.042 227.174 250.351 226.484 250.668C225.795 250.985 224.812 251.296 223.313 251.68C219.211 252.731 215.658 253.99 213.23 255.297C211.336 256.317 210.718 256.67 209.479 257.441C207.314 258.788 203.692 261.444 201.992 262.943C200.913 263.895 199.851 264.813 199.471 265.127C199.217 265.336 198.97 265.546 198.809 265.699C198.426 266.062 198.273 266.458 198.15 266.781C198.019 267.127 197.898 267.516 197.898 267.977C197.898 268.051 197.893 268.233 197.945 268.457C198.021 268.781 198.182 269.078 198.533 269.311C199.017 269.631 199.445 269.584 199.643 269.596C200.04 269.62 200.558 269.623 200.943 269.602C204.291 269.419 211.06 269.722 215.602 270.274C217.634 270.521 219.838 270.78 220.563 270.854C223.319 271.136 229.236 272.132 231.217 272.633C233.138 273.119 235.149 273.904 240.436 276.27C241.252 276.635 243.823 278.082 248.498 280.869C252.862 283.471 254.234 284.18 257.223 285.379C257.224 285.379 257.225 285.379 257.227 285.379C257.228 285.38 257.229 285.38 257.231 285.381C257.921 285.658 258.566 285.904 259.065 286.08C259.313 286.168 259.523 286.238 259.703 286.291C259.792 286.318 259.877 286.341 259.971 286.362C260.016 286.372 260.083 286.385 260.162 286.393C260.085 286.385 260.191 286.411 260.322 286.41C260.454 286.41 260.589 286.376 260.75 286.315C261.022 286.21 261.233 285.994 261.196 286.03C261.262 285.967 261.312 285.909 261.35 285.865C261.435 285.767 261.516 285.662 261.6 285.547C261.767 285.317 261.956 285.035 262.145 284.729C263.226 282.97 265.799 279.929 270.405 275.09C270.491 275 270.539 274.879 270.539 274.754V274.947L273.326 272.022C273.326 272.021 273.326 272.02 273.326 272.02C273.45 271.89 273.545 271.733 273.602 271.563V271.561L274.951 267.506C275.584 265.605 276.203 263.807 276.713 262.389C277.223 260.972 277.662 259.859 277.789 259.596C277.89 259.386 278.025 259.058 278.242 258.535C278.461 258.01 278.736 257.341 279.016 256.651C280.291 253.511 283.045 248.018 284.09 246.432C284.435 245.909 284.672 245.528 284.84 245.203C284.918 245.053 285.005 244.878 285.061 244.647C285.083 244.553 285.126 244.329 285.082 244.074C285.082 244.074 285.082 244.073 285.082 244.072C285.018 243.705 284.837 243.376 284.42 243.156C284.165 243.022 283.877 242.994 283.994 243.016C283.922 243.003 283.854 242.993 283.782 242.984C283.633 242.966 283.462 242.952 283.264 242.936C282.863 242.903 282.35 242.871 281.803 242.848C275.484 242.578 269.491 241.727 266.518 240.758C265.733 240.502 264.892 240.141 264.186 239.783C263.48 239.426 262.891 239.052 262.684 238.865C262.597 238.788 262.235 238.381 261.824 237.867C261.414 237.354 260.923 236.709 260.457 236.057C259.523 234.748 258.581 233.286 258.25 232.631C257.575 231.293 257.332 230.025 257.088 225.988C256.958 223.833 256.962 223.387 257.139 221.598C257.296 220.015 257.379 219.073 257.348 218.315C257.315 217.529 257.083 216.897 256.758 216.406C256.505 216.024 256.244 215.69 255.914 215.416C255.574 215.134 255.119 214.898 254.584 214.898Z" fill="#EC6A72"/>
<path d="M473.97 101.902L465.777 106.07L465.467 107.021L469.415 106.203L480.449 101.383L483.125 99.6247L483.899 97.2476L482.639 97.8888L473.97 101.902Z" stroke="#CE8753"/>
<path d="M455.593 119.581L464.925 119.991L471.891 121.207L485.203 125.542L488.387 128.682L489.183 129.467L488.564 131.369L455.439 120.057M446.836 133.557L450.639 134.795L453.658 136.83L457.804 141.86L460.999 146.582L462.934 151.944L461.695 155.748L458.367 154.664L455.979 152.309L451.026 144.912L447.344 138.455L446.361 133.402" stroke="#CE8753"/>
<path d="M394.849 92.9654L390.361 84.142L386.69 79.2659L381.46 77.563L380.841 79.4647L382.123 81.9857L385.308 85.1259L388.171 87.6359L391.035 90.1458L394.374 92.8106" stroke="#CE8753"/>
<path d="M402.987 80.8918L404.601 85.6241L406.017 84.5075L406.791 82.1303L407.41 80.2286L408.029 78.3269L407.698 76.1155L406.094 72.9643L404.812 70.4434L404.16 67.6018L403.187 64.13L402.855 61.9186L401.573 59.3977L400.766 57.0315L399.804 55.1408L399.627 52.454L397.714 50.2537L397.405 51.2045L396.785 53.1063L397.117 55.3176L397.128 56.8987L397.46 59.11L398.433 62.5819L399.251 66.5291L400.223 70.0009L401.042 73.9482L401.849 76.3143L402.18 78.5257L402.987 80.8918Z" stroke="#CE8753"/>
<path d="M420.8 73.0202L421.762 74.9109L422.071 73.96L422.536 72.5337L422.37 71.4281L422.68 70.4772L422.348 68.2659L422.647 65.7339L422.315 63.5226L421.066 65.7449L420.922 67.8014L420.623 70.3334L420.634 71.9145L420.8 73.0202Z" stroke="#CE8753"/>
<path d="M453.637 88.4454L457.253 85.416L467.967 79.9654L477.741 75.7864L485.315 73.52L485.006 74.4709L482.485 75.7534L478.228 77.5223L462.936 84.1115L454.113 88.6002" stroke="#CE8753"/>
<path d="M424.026 127.706C434.266 131.04 445.202 125.655 448.45 115.677C451.699 105.7 446.032 94.9078 435.792 91.5733C425.551 88.2388 414.616 93.6243 411.367 103.602C408.118 113.58 413.786 124.372 424.026 127.706Z" fill="#EA6B74"/>
<path d="M442.924 71.2851L441.354 72.8772L440.337 63.081L441.078 55.9605L441.067 54.3794L442.151 51.0514L443.08 48.1988L444.628 43.4445L446.032 40.7468L447.912 38.2038L449.493 38.1928L450.765 39.1327L450.952 43.4005L447.723 56.5468L446.021 61.7765L442.924 71.2851Z" stroke="#CE8753"/>
<path d="M392.311 90.4797C390.434 88.9821 385.748 84.821 384.104 83.1933L382.552 81.6563L381.987 80.533L381.423 79.4096L381.6 78.8566C381.697 78.5525 381.794 78.2925 381.816 78.2789C381.838 78.2653 382.871 78.5837 384.111 78.9864L386.366 79.7188L388.117 82.0476C390.077 84.6545 389.77 84.1395 392.123 88.7699C392.818 90.1386 393.377 91.2686 393.365 91.2809C393.353 91.2932 392.878 90.9327 392.311 90.4797Z" fill="#F1B346"/>
<path d="M98.0813 402.821L96.9226 401.804L95.8041 403.615L96.7424 404.637L98.0813 402.821Z" fill="#EC6B70"/>
<path d="M355.695 458.352L355.654 458.358C355.626 458.365 355.6 458.381 355.58 458.402C355.58 458.402 355.697 458.508 355.697 458.508C355.697 458.508 355.541 458.531 355.541 458.531C355.541 458.532 355.545 458.552 355.547 458.557C355.55 458.566 355.551 458.569 355.553 458.572C355.556 458.579 355.558 458.584 355.561 458.59C355.566 458.602 355.572 458.614 355.579 458.629C355.664 458.824 355.746 459.055 355.817 459.297C355.817 459.298 355.817 459.3 355.817 459.301C355.82 459.309 355.822 459.317 355.825 459.324C355.826 459.328 355.829 459.33 355.831 459.336C355.832 459.339 355.837 459.349 355.837 459.35C355.837 459.35 355.849 459.369 355.849 459.369C355.849 459.369 355.872 459.397 355.872 459.397L355.882 459.405L355.892 459.411L355.935 459.43L355.978 459.28C355.978 459.28 356.099 459.381 356.099 459.381C356.099 459.381 356.105 459.371 356.107 459.37C356.11 459.366 356.111 459.364 356.113 459.362C356.116 459.358 356.118 459.355 356.121 459.35C356.127 459.34 356.134 459.327 356.143 459.315C356.179 459.259 356.242 459.177 356.291 459.119L356.334 459.069C356.361 459.038 356.374 458.997 356.372 458.956C356.369 458.916 356.351 458.877 356.32 458.85L356.064 458.619C355.993 458.555 355.929 458.497 355.881 458.455C355.857 458.434 355.836 458.419 355.822 458.406C355.815 458.4 355.81 458.395 355.805 458.391C355.802 458.389 355.801 458.388 355.797 458.385C355.795 458.383 355.785 458.377 355.785 458.377C355.785 458.377 355.767 458.365 355.767 458.365L355.759 458.363L355.746 458.357L355.697 458.351L355.695 458.352ZM355.697 458.508L355.545 458.469L355.543 458.475L355.697 458.508Z" fill="#36546E"/>
<path d="M97.9763 457.896C97.7125 457.695 97.79 457.388 98.8134 454.581C101.376 447.552 103.164 440.42 104.131 433.368C104.515 430.574 104.669 422.88 104.399 419.99C103.712 412.612 101.237 405.844 98.0933 402.744L97.2556 401.919L97.4718 400.953C97.7241 399.825 98.3226 399.133 99.1845 398.971C99.5119 398.91 100.796 399.026 102.057 399.232C107.587 400.133 109.89 399.512 113.346 396.187L115.152 394.449L115.057 395.126C114.978 395.689 114.703 396.057 113.43 397.306C110.285 400.392 107.429 401.093 101.879 400.14C99.1269 399.668 98.7685 399.744 98.4422 400.87C98.2811 401.426 98.3253 401.524 99.2048 402.564C102.25 406.164 104.427 411.998 105.175 418.563C105.228 419.025 105.316 419.781 105.372 420.242C105.428 420.704 105.502 422.373 105.538 423.951C105.739 432.972 103.781 443.43 99.8196 454.493C98.3854 458.498 98.4972 458.292 97.9763 457.896Z" fill="#36546E"/>
<path d="M124.47 382.729C124.473 382.724 124.661 382.476 124.887 382.18C127.362 378.934 129.898 375.522 132.699 371.67L132.746 371.606H132.942H133.137L133.081 371.682C133.028 371.753 132.553 372.404 132.416 372.594C132.381 372.641 132.335 372.704 132.313 372.734C132.291 372.765 132.239 372.835 132.198 372.891C131.949 373.231 131.891 373.312 131.832 373.392C131.771 373.476 131.684 373.596 131.645 373.649C131.629 373.67 131.59 373.723 131.559 373.766C131.527 373.809 131.489 373.861 131.473 373.883C131.457 373.904 131.418 373.957 131.387 374C131.355 374.043 131.317 374.096 131.301 374.117C131.285 374.139 131.248 374.19 131.218 374.231C131.16 374.31 131.082 374.415 130.948 374.598C130.902 374.66 130.858 374.72 130.85 374.731C130.782 374.825 129.804 376.149 129.567 376.469C129.512 376.542 129.426 376.658 129.375 376.727C129.271 376.867 129.186 376.982 128.934 377.32C128.838 377.449 128.701 377.633 128.63 377.729C128.438 377.987 127.101 379.772 126.876 380.07C126.769 380.212 126.605 380.428 126.513 380.551C126.421 380.673 126.308 380.823 126.262 380.883C126.216 380.943 126.13 381.057 126.07 381.136C126.01 381.215 125.938 381.31 125.91 381.347C125.882 381.384 125.795 381.499 125.717 381.602C125.508 381.877 125.273 382.186 125.155 382.34C125.117 382.39 125.034 382.499 124.969 382.584L124.852 382.738H124.658C124.505 382.738 124.465 382.737 124.47 382.729Z" fill="#36546E"/>
<path d="M132.868 371.461C134.594 369.083 136.65 366.209 138.3 363.867L139.164 362.64L139.832 362.24C145.676 358.736 150.617 355.256 154.105 352.189C155.06 351.35 156.066 350.366 156.488 349.859C156.567 349.765 157.225 348.756 157.951 347.617L159.271 345.547H159.425H159.579L159.495 345.68C159.099 346.31 157.591 348.526 157.034 349.297C156.069 350.633 155.407 351.372 154.234 352.423C151.357 355.001 146.186 358.734 141.766 361.422C140.195 362.378 139.742 362.746 138.901 363.75C138.462 364.274 137.749 365.212 137.001 366.25C136.816 366.508 136.612 366.789 136.548 366.875C136.484 366.961 135.886 367.791 135.219 368.719C134.552 369.647 133.81 370.677 133.569 371.008L133.132 371.609H132.946H132.76L132.868 371.461Z" fill="#36546E"/>
<path d="M136.885 365.856C136.916 365.821 137.675 364.751 138.457 363.641C138.615 363.416 138.841 363.098 138.958 362.934L139.171 362.636L139.445 362.471C140.405 361.896 140.946 361.566 142.007 360.907C143.864 359.753 145.694 358.553 147.299 357.435C147.833 357.063 148.567 356.544 148.758 356.404C148.843 356.341 149.081 356.167 149.288 356.016C151.311 354.544 153.376 352.875 154.779 351.581C155.371 351.034 156.25 350.148 156.47 349.874C156.544 349.783 156.694 349.569 156.804 349.399C157.137 348.884 158.329 347.026 158.695 346.449C158.885 346.151 159.093 345.826 159.158 345.725L159.276 345.543L159.43 345.543L159.585 345.542L159.821 345.184C160.105 344.752 160.723 343.808 160.822 343.654C160.861 343.593 161.08 343.255 161.309 342.903C161.537 342.55 161.785 342.167 161.86 342.052C161.934 341.936 162.109 341.665 162.249 341.45C162.388 341.234 162.557 340.971 162.625 340.864C162.693 340.758 162.985 340.303 163.275 339.853C163.565 339.404 163.853 338.956 163.915 338.859C164.043 338.661 164.071 338.617 164.816 337.456C165.108 337 165.437 336.488 165.546 336.318C165.655 336.148 165.895 335.772 166.079 335.484C166.263 335.195 166.46 334.887 166.517 334.799C166.575 334.71 166.652 334.586 166.69 334.522L166.759 334.406H171.221H175.683L175.689 350.15L175.695 365.895H156.273C137.778 365.895 136.853 365.893 136.885 365.856Z" fill="#36546E"/>
<path d="M140.908 361.583C146.475 358.186 151.219 354.784 154.469 351.861C155.079 351.312 155.883 350.524 156.266 350.102C156.579 349.756 156.738 349.516 158.629 346.549L159.257 345.562L159.414 345.553L159.571 345.544L159.913 345.023C160.478 344.163 161.129 343.165 161.427 342.704C161.833 342.074 162.536 340.984 162.657 340.797C163.145 340.046 163.719 339.152 164.082 338.579C164.207 338.381 164.396 338.086 164.501 337.922C164.607 337.759 164.873 337.344 165.094 337.001C165.669 336.103 165.841 335.835 166.548 334.735C166.896 334.194 167.553 333.167 168.009 332.454C168.465 331.74 168.997 330.907 169.192 330.602C170.453 328.631 171.079 327.65 172.506 325.407C173.887 323.237 175.341 320.947 176.687 318.821L177.493 317.547H184.114H190.734L190.733 337.852L190.732 358.157L190.288 358.499C190.044 358.688 189.012 359.57 187.996 360.46L186.147 362.079H163.123H140.099L140.908 361.583Z" fill="#36546E"/>
<path d="M160.634 343.389C160.65 343.364 162.246 340.864 164.182 337.832C166.117 334.801 167.705 332.316 167.71 332.31C167.717 332.302 167.764 332.301 167.912 332.302L168.104 332.304L168.039 332.406C168.003 332.462 167.963 332.525 167.949 332.547C167.925 332.585 167.896 332.632 167.676 332.975C167.613 333.072 167.55 333.171 167.535 333.195C167.47 333.298 167.37 333.455 167.29 333.578C167.185 333.741 167.128 333.83 167 334.031C166.945 334.117 166.871 334.231 166.836 334.285C166.767 334.391 166.537 334.751 166.48 334.842C166.46 334.873 166.397 334.972 166.338 335.062C166.28 335.152 166.145 335.362 166.039 335.527C165.933 335.693 165.834 335.845 165.82 335.867C165.806 335.888 165.77 335.945 165.74 335.992C165.71 336.039 165.618 336.183 165.535 336.312C165.395 336.531 165.183 336.861 165.041 337.084C165.007 337.137 164.956 337.216 164.927 337.261C164.865 337.356 164.773 337.499 164.635 337.715C164.581 337.798 164.492 337.937 164.437 338.023C164.309 338.223 164.007 338.696 163.879 338.898C163.825 338.984 163.735 339.125 163.68 339.211C163.625 339.297 163.548 339.416 163.51 339.476C163.471 339.537 163.413 339.626 163.381 339.676C163.297 339.806 163.204 339.95 163.133 340.062C163.098 340.116 163.039 340.209 163 340.268C162.961 340.327 162.919 340.393 162.905 340.414C162.869 340.471 162.666 340.785 162.613 340.867C162.54 340.978 162.393 341.207 162.234 341.453C162.154 341.578 162.014 341.795 161.922 341.937C161.83 342.079 161.735 342.227 161.71 342.265C161.685 342.304 161.633 342.385 161.594 342.445C161.554 342.505 161.507 342.579 161.488 342.609C161.469 342.639 161.382 342.772 161.296 342.906C161.209 343.039 161.096 343.212 161.046 343.291L160.953 343.433L160.779 343.433L160.605 343.433L160.634 343.389Z" fill="#36546E"/>
<path d="M164.618 337.164C164.676 337.074 165.311 336.079 166.03 334.953C166.748 333.827 167.425 332.769 167.535 332.602L167.733 332.297H167.918H168.103L168.299 331.992C168.407 331.825 168.751 331.287 169.063 330.797C169.375 330.307 170.008 329.316 170.469 328.594C170.93 327.872 171.897 326.353 172.618 325.219C173.34 324.084 173.981 323.076 174.043 322.978C174.351 322.494 174.608 322.09 175.309 320.984C175.729 320.323 176.135 319.683 176.212 319.562C176.288 319.442 176.537 319.048 176.765 318.688C176.993 318.327 177.303 317.841 177.452 317.609C177.739 317.165 178.011 316.735 178.641 315.734C178.851 315.399 179.14 314.942 179.281 314.719C179.867 313.794 182.931 308.89 183.235 308.391C183.282 308.313 183.566 307.849 183.866 307.359C184.512 306.304 184.674 306.031 184.875 305.656C184.958 305.502 185.051 305.338 185.083 305.292C185.115 305.246 185.141 305.202 185.141 305.194C185.141 305.185 185.392 304.729 185.7 304.179C186.328 303.059 186.282 303.195 186.313 302.375C186.323 302.117 186.344 301.639 186.36 301.312C186.377 300.986 186.398 300.564 186.407 300.375C186.502 298.405 186.579 297.133 186.656 296.266C186.664 296.171 186.679 296.002 186.688 295.891C186.735 295.332 186.936 293.482 186.994 293.078L187.032 292.812L199.243 292.805L211.453 292.797L211.461 315.062L211.469 337.328H187.991H164.514L164.618 337.164Z" fill="#36546E"/>
<path d="M176.007 319.312C176.014 319.3 177.145 317.529 178.52 315.376L181.019 311.461L181.17 311.461C181.253 311.461 181.32 311.463 181.32 311.463C181.32 311.463 181.285 311.522 181.241 311.592C181.153 311.732 181.075 311.858 180.995 311.986C180.965 312.033 180.863 312.196 180.768 312.348C180.673 312.5 180.565 312.672 180.528 312.732C180.47 312.824 180.28 313.128 179.857 313.803C179.804 313.887 179.756 313.964 179.749 313.975C179.742 313.985 179.718 314.024 179.695 314.06C179.672 314.097 179.624 314.174 179.587 314.232C179.518 314.341 179.265 314.744 179.07 315.055C179.007 315.155 178.949 315.246 178.942 315.256C178.935 315.267 178.908 315.309 178.883 315.35C178.836 315.424 178.772 315.526 178.55 315.878C178.487 315.978 178.408 316.102 178.376 316.154C178.343 316.206 178.292 316.286 178.263 316.334C178.233 316.381 178.178 316.469 178.14 316.53C178.102 316.59 178.06 316.656 178.047 316.676C178.035 316.696 177.976 316.788 177.917 316.88C177.859 316.973 177.778 317.1 177.739 317.162C177.674 317.265 177.578 317.414 177.466 317.588C177.443 317.622 177.398 317.693 177.366 317.744C177.333 317.794 177.275 317.886 177.235 317.948C177.176 318.042 177.002 318.315 176.959 318.383C176.945 318.405 176.906 318.465 176.878 318.51C176.85 318.554 176.73 318.744 176.675 318.831C176.65 318.872 176.618 318.921 176.605 318.941C176.561 319.01 176.372 319.308 176.366 319.321L176.359 319.333H176.176H175.993L176.007 319.312Z" fill="#36546E"/>
<path d="M167.75 332.272C167.75 332.263 175.884 319.517 175.994 319.353C176.001 319.343 176.084 319.337 176.177 319.341L176.348 319.348L176.2 319.58C176.118 319.707 175.985 319.916 175.905 320.044C175.824 320.171 175.541 320.619 175.275 321.038C175.01 321.457 174.76 321.85 174.721 321.911C174.645 322.028 173.954 323.116 173.374 324.032C173.181 324.336 172.982 324.649 172.931 324.728C172.879 324.807 172.629 325.2 172.374 325.601C172.119 326.002 171.46 327.036 170.91 327.899C170.359 328.762 169.813 329.618 169.697 329.802C169.58 329.986 169.176 330.619 168.8 331.21L168.115 332.284L167.932 332.285C167.832 332.285 167.75 332.279 167.75 332.272Z" fill="#36546E"/>
<path d="M181.12 311.337C181.167 311.27 181.642 310.529 182.176 309.691C182.966 308.45 183.416 307.672 184.591 305.513L186.035 302.861L186.036 301.912C186.038 297.943 186.516 293.007 187.278 289.096C188.889 280.829 192.102 273.873 196.199 269.783C196.759 269.224 197.72 268.407 197.853 268.378C197.888 268.37 197.923 268.42 197.94 268.505C197.981 268.709 197.981 268.709 197.824 268.74C197.673 268.77 197.185 269.247 196.056 270.468C192.537 274.276 189.967 279.426 188.338 285.936C187.237 290.334 186.655 294.639 186.412 300.167C186.399 300.483 186.378 300.881 186.367 301.051C186.356 301.221 186.335 301.678 186.321 302.067C186.288 302.963 186.248 303.188 186.063 303.522C185.981 303.67 185.719 304.139 185.481 304.564C185.243 304.99 184.965 305.487 184.863 305.669C184.552 306.227 183.522 307.92 182.168 310.102C181.343 311.433 181.326 311.455 181.182 311.457L181.035 311.459L181.12 311.337Z" fill="#36546E"/>
<path d="M194.005 272.313C194.063 272.234 194.266 271.963 194.337 271.869C195.367 270.527 196.421 269.432 197.463 268.621C197.566 268.541 197.767 268.392 197.855 268.331C197.866 268.324 197.869 268.323 197.892 268.328L197.918 268.333L197.93 268.394C197.946 268.471 197.967 268.553 197.986 268.611C197.997 268.643 198.002 268.664 198.002 268.679V268.701L197.983 268.704C197.973 268.705 197.958 268.708 197.951 268.709L197.937 268.711L197.946 268.702C197.967 268.679 197.967 268.647 197.945 268.537C197.928 268.448 197.91 268.407 197.881 268.387C197.863 268.375 197.855 268.376 197.82 268.394C197.632 268.494 196.959 269.061 196.391 269.599C196.211 269.77 195.882 270.105 195.68 270.324C195.669 270.336 195.639 270.368 195.613 270.396C195.523 270.494 195.289 270.756 195.205 270.854C195.198 270.863 195.16 270.906 195.121 270.951C195.049 271.035 194.958 271.143 194.846 271.279C194.608 271.566 194.319 271.936 194.076 272.264L194.012 272.351H193.995H193.978L194.005 272.313Z" fill="#36546E"/>
<path d="M324.758 186.471C324.758 186.468 324.96 186.27 325.207 186.03C325.454 185.791 325.776 185.479 325.922 185.337C326.069 185.195 326.304 184.966 326.446 184.829C326.587 184.692 326.816 184.471 326.953 184.337C327.49 183.816 327.682 183.63 328.633 182.711C329.147 182.213 329.51 181.861 329.859 181.521C329.988 181.395 330.122 181.266 330.156 181.234C330.191 181.201 330.335 181.062 330.477 180.924C330.618 180.786 330.854 180.557 331 180.415C331.474 179.955 331.822 179.616 332.109 179.336C332.264 179.186 332.658 178.802 332.984 178.485C333.669 177.819 334.051 177.445 334.578 176.926C334.784 176.723 334.968 176.544 334.987 176.528C335.025 176.495 336.328 175.217 337.086 174.468C337.357 174.201 337.87 173.695 338.227 173.343C339.055 172.527 343.511 168.071 344.118 167.453C344.371 167.195 344.859 166.693 345.203 166.336C345.547 165.979 345.897 165.617 345.98 165.531L346.132 165.375L346.133 165.868L346.133 166.36L344.98 167.614L343.828 168.867L334.797 177.672L325.766 186.477H325.262C324.985 186.477 324.758 186.474 324.758 186.471Z" fill="#36546E"/>
<path d="M302.943 203.002C302.702 202.916 302.645 202.783 302.765 202.587C302.875 202.407 303.519 201.931 304.469 201.329C305.425 200.723 307.668 199.155 311.683 196.284C313.911 194.691 313.958 194.657 315.719 193.386C316.492 192.828 318.032 191.717 319.141 190.917C323.551 187.734 323.072 188.098 323.841 187.352C324.218 186.987 324.581 186.639 324.648 186.58L324.77 186.473L325.245 186.481C325.505 186.486 325.722 186.492 325.725 186.495C325.728 186.498 325.293 186.927 324.756 187.447L323.781 188.393L314.745 194.915C306.107 201.149 305.687 201.448 305.214 201.694C304.619 202.004 304.163 202.266 304.184 202.287C304.208 202.312 304.998 202.129 306.453 201.761C311.155 200.573 316.628 199.176 325.797 196.824L328.844 196.042L333.578 194.4C336.182 193.496 338.387 192.732 338.477 192.7L338.642 192.643L338.638 192.997L338.634 193.352L337.067 193.89C329.439 196.509 326.866 197.26 316.845 199.796C316.02 200.005 314.909 200.286 314.376 200.421C313.319 200.689 309.822 201.553 308.798 201.799C304.978 202.717 303.495 203.048 303.209 203.045C303.129 203.044 303.01 203.024 302.944 203.001L302.943 203.002Z" fill="#36546E"/>
<path d="M385.194 115.683C385.197 115.674 385.294 115.505 385.409 115.307C386.131 114.072 386.545 113.305 386.666 112.977C386.744 112.764 386.673 112.579 386.375 112.231C386.252 112.087 385.711 111.547 385.368 111.225C384.114 110.051 381.511 107.782 379.376 106.002C379.071 105.748 378.976 105.663 378.996 105.663C379.015 105.663 379.163 105.78 379.508 106.068C380.192 106.64 381.228 107.519 381.695 107.922C382.608 108.712 383.106 109.146 383.545 109.535C384.864 110.706 385.68 111.455 386.197 111.971C386.542 112.316 386.695 112.502 386.732 112.627C386.754 112.701 386.764 112.863 386.749 112.926C386.72 113.055 386.409 113.626 385.812 114.651C385.273 115.574 385.173 115.742 385.194 115.683Z" fill="#36546E"/>
<path d="M380.452 123.537C380.459 123.523 380.505 123.447 380.554 123.368C380.602 123.289 380.668 123.182 380.699 123.13C380.823 122.928 380.943 122.734 380.994 122.652C381.024 122.605 381.048 122.564 381.048 122.56C381.048 122.557 381.065 122.529 381.085 122.497C381.123 122.44 381.171 122.361 381.451 121.904C381.586 121.684 381.882 121.198 381.93 121.118C382.027 120.958 382.051 120.919 382.081 120.871C382.1 120.841 382.145 120.767 382.181 120.708C382.217 120.649 382.254 120.588 382.263 120.573C382.354 120.426 382.504 120.18 382.566 120.075C382.583 120.045 382.609 120.003 382.623 119.982C382.65 119.94 382.825 119.652 382.926 119.484C382.961 119.427 383.053 119.275 383.13 119.147C383.208 119.02 383.304 118.861 383.343 118.794C383.383 118.727 383.427 118.655 383.441 118.634C383.465 118.597 384.418 117.015 384.466 116.931C384.556 116.777 384.588 116.722 384.615 116.678C384.645 116.63 384.81 116.354 384.849 116.286C384.859 116.268 384.902 116.196 384.944 116.126C385.139 115.803 385.204 115.69 385.207 115.668C385.21 115.644 385.255 115.55 385.268 115.54C385.272 115.537 385.299 115.492 385.328 115.441C385.357 115.389 385.39 115.329 385.403 115.308C385.472 115.193 385.533 115.088 385.552 115.054C385.563 115.033 385.609 114.955 385.652 114.881C385.696 114.807 385.732 114.744 385.732 114.74C385.732 114.737 385.748 114.708 385.767 114.676C385.83 114.57 385.846 114.542 385.995 114.275C386.175 113.952 386.198 113.911 386.254 113.806C386.279 113.76 386.315 113.692 386.336 113.654C386.376 113.582 386.557 113.219 386.586 113.154C386.688 112.926 386.704 112.857 386.682 112.748C386.655 112.611 386.546 112.434 386.358 112.22C386.263 112.111 385.59 111.44 385.395 111.259C385.317 111.186 385.217 111.094 385.175 111.054C385.076 110.961 384.829 110.735 384.693 110.612C384.636 110.561 384.576 110.506 384.559 110.491C384.543 110.476 384.491 110.429 384.443 110.386C384.396 110.343 384.327 110.281 384.29 110.248C384.253 110.214 384.189 110.157 384.147 110.121C384.105 110.084 384.066 110.049 384.059 110.043C384.052 110.037 383.935 109.932 383.799 109.812C383.662 109.691 383.548 109.589 383.545 109.586C383.542 109.583 383.502 109.547 383.456 109.508C383.411 109.468 383.371 109.433 383.368 109.43C383.365 109.427 383.245 109.322 383.103 109.198C382.96 109.074 382.832 108.962 382.82 108.95C382.807 108.938 382.77 108.905 382.737 108.878C382.705 108.851 382.671 108.82 382.661 108.811C382.652 108.802 382.612 108.767 382.572 108.734C382.533 108.701 382.496 108.668 382.489 108.662C382.483 108.655 382.446 108.623 382.406 108.59C382.367 108.557 382.332 108.527 382.329 108.524C382.326 108.521 382.252 108.456 382.163 108.38C382.075 108.305 382.001 108.24 381.998 108.237C381.995 108.234 381.958 108.201 381.915 108.165C381.804 108.069 381.777 108.046 381.75 108.022C381.736 108.01 381.702 107.98 381.672 107.955C381.643 107.931 381.601 107.895 381.579 107.876C381.557 107.856 381.535 107.84 381.531 107.84C381.51 107.839 381.526 107.817 381.548 107.817C381.564 107.817 381.652 107.886 381.804 108.018C382.621 108.724 383.368 109.377 383.898 109.849C384.211 110.128 384.871 110.723 384.937 110.784C384.97 110.816 385.065 110.903 385.148 110.978C385.984 111.741 386.509 112.267 386.655 112.485C386.732 112.603 386.748 112.654 386.752 112.799C386.755 112.914 386.755 112.917 386.778 112.913C386.802 112.909 386.915 112.96 386.994 113.012C387.016 113.026 387.087 113.07 387.151 113.109C387.215 113.148 387.295 113.202 387.329 113.228L387.389 113.275L387.313 113.405C387.214 113.576 386.954 114.011 386.684 114.46C386.565 114.659 386.459 114.834 386.45 114.85C386.409 114.92 385.849 115.848 385.715 116.071C385.632 116.207 385.554 116.336 385.542 116.357C385.53 116.378 385.413 116.572 385.282 116.788C385.151 117.004 384.987 117.276 384.917 117.391C384.847 117.506 384.782 117.613 384.773 117.629C384.763 117.644 384.749 117.666 384.743 117.678C384.736 117.69 384.622 117.879 384.49 118.098C384.357 118.317 384.191 118.59 384.121 118.706C383.991 118.92 383.879 119.105 383.712 119.38C383.516 119.704 383.431 119.843 383.339 119.996C383.286 120.082 383.229 120.175 383.213 120.203C383.196 120.23 383.151 120.305 383.112 120.369C383.074 120.432 383.034 120.497 383.024 120.512C383.003 120.545 382.51 121.353 382.445 121.462C382.421 121.504 382.336 121.642 382.257 121.77C382.178 121.898 382.109 122.012 382.103 122.023C382.097 122.034 382.04 122.127 381.977 122.23C381.913 122.334 381.815 122.495 381.757 122.589C381.7 122.684 381.627 122.803 381.595 122.854C381.543 122.938 381.402 123.17 381.226 123.459L381.164 123.561L380.801 123.561L380.439 123.562L380.452 123.537Z" fill="#36546E"/>
<path d="M596.162 416H560.292C554.384 416 551.43 413.046 551.43 407.138V153.516C551.43 147.608 554.384 144.654 560.292 144.654H660.728C682.672 144.654 699.833 150.703 712.212 162.8C724.591 174.897 730.78 191.918 730.78 213.862V246.778C730.78 278.569 718.261 299.669 693.222 310.078V311.766L738.376 405.872C740.908 412.624 738.517 416 731.202 416H697.02C691.956 416 688.299 415.437 686.048 414.312C683.797 413.187 681.969 410.795 680.562 407.138L638.362 315.986H610.088C606.712 315.986 605.024 317.533 605.024 320.628V407.138C605.024 413.046 602.07 416 596.162 416ZM609.666 272.942H651.022C660.025 272.942 666.636 271.113 670.856 267.456C675.076 263.517 677.186 257.328 677.186 248.888V215.972C677.186 207.251 675.076 200.921 670.856 196.982C666.636 193.043 660.025 191.074 651.022 191.074H609.666C606.571 191.074 605.024 192.621 605.024 195.716V268.3C605.024 271.395 606.571 272.942 609.666 272.942ZM929.067 416H791.073C785.165 416 782.211 413.046 782.211 407.138V153.516C782.211 147.608 785.165 144.654 791.073 144.654H929.067C934.694 144.654 937.507 147.608 937.507 153.516V182.212C937.507 188.12 934.694 191.074 929.067 191.074H840.869C837.493 191.074 835.805 192.621 835.805 195.716V250.576C835.805 253.671 837.493 255.218 840.869 255.218H913.031C918.939 255.218 921.893 258.172 921.893 264.08V292.776C921.893 298.684 918.939 301.638 913.031 301.638H840.869C837.493 301.638 835.805 303.185 835.805 306.28V364.938C835.805 368.033 837.493 369.58 840.869 369.58H929.067C934.694 369.58 937.507 372.534 937.507 378.442V407.138C937.507 413.046 934.694 416 929.067 416ZM1094.71 416H1039.43C1033.52 416 1030 413.046 1028.88 407.138L963.467 154.36C961.498 147.889 964.311 144.654 971.907 144.654H1011.57C1017.2 144.654 1020.58 147.608 1021.7 153.516L1066.01 361.14H1067.7L1112.01 153.516C1113.14 147.608 1116.51 144.654 1122.14 144.654H1161.81C1168.84 144.654 1171.65 147.889 1170.25 154.36L1104.84 407.138C1103.43 413.046 1100.05 416 1094.71 416ZM1232.49 416H1191.97C1186.91 416 1185.22 413.046 1186.91 407.138L1253.59 153.516C1255.55 147.608 1259.77 144.654 1266.25 144.654H1322.37C1329.4 144.654 1333.62 147.608 1335.03 153.516L1401.71 407.138C1403.4 413.046 1401.71 416 1396.64 416H1356.13C1353.04 416 1350.93 415.437 1349.8 414.312C1348.68 412.905 1347.83 410.514 1347.27 407.138L1335.45 360.718H1253.16L1241.35 407.138C1240.78 410.514 1239.8 412.905 1238.39 414.312C1237.27 415.437 1235.3 416 1232.49 416ZM1293.68 195.716L1263.29 317.674H1325.75L1295.36 195.716H1293.68ZM1619.31 144.654H1681.76C1687.67 144.654 1690.63 147.608 1690.63 153.516V407.138C1690.63 413.046 1687.67 416 1681.76 416H1647.16C1641.25 416 1638.3 413.046 1638.3 407.138V207.11H1636.61L1593.57 348.48C1591.88 354.107 1588.36 356.92 1583.02 356.92H1547.57C1542.22 356.92 1538.71 354.107 1537.02 348.48L1493.13 206.688H1491.44V407.138C1491.44 410.514 1490.88 412.905 1489.75 414.312C1488.63 415.437 1486.24 416 1482.58 416H1447.98C1442.07 416 1439.11 413.046 1439.11 407.138V153.516C1439.11 147.608 1442.07 144.654 1447.98 144.654H1510.85C1514.79 144.654 1517.46 146.623 1518.87 150.562L1563.6 299.528H1566.14L1611.29 150.562C1612.13 146.623 1614.81 144.654 1619.31 144.654ZM1790.04 416H1754.17C1748.26 416 1745.31 413.046 1745.31 407.138V153.516C1745.31 147.608 1748.26 144.654 1754.17 144.654H1857.14C1879.08 144.654 1896.11 150.703 1908.2 162.8C1920.3 174.616 1926.35 191.496 1926.35 213.44V253.952C1926.35 275.896 1920.3 292.917 1908.2 305.014C1896.11 316.83 1879.08 322.738 1857.14 322.738H1803.97C1800.59 322.738 1798.9 324.285 1798.9 327.38V407.138C1798.9 413.046 1795.95 416 1790.04 416ZM1803.55 275.896H1848.28C1857.28 275.896 1863.61 274.067 1867.27 270.41C1870.93 266.471 1872.75 260.141 1872.75 251.42V215.972C1872.75 206.969 1870.93 200.639 1867.27 196.982C1863.61 193.043 1857.28 191.074 1848.28 191.074H1803.55C1800.45 191.074 1798.9 192.621 1798.9 195.716V271.254C1798.9 274.349 1800.45 275.896 1803.55 275.896Z" fill="#8CA9C8"/>
</g>
<defs>
<clipPath id="clip0_26_758">
<rect width="1942" height="542" fill="white"/>
</clipPath>
</defs>
</svg>
