<svg width="496" height="488" viewBox="0 0 496 488" fill="none" xmlns="http://www.w3.org/2000/svg">
<g clip-path="url(#clip0_39_2)">
<path d="M147.619 161.202L147.754 161.059L147.756 160.863L148.42 86.4768L295.115 86.5599L295.117 86.5599L295.126 86.56L295.129 86.5603L295.179 86.5618C295.223 86.5632 295.289 86.5656 295.378 86.5692C295.554 86.5765 295.817 86.5889 296.162 86.6091C296.851 86.6497 297.864 86.7218 299.155 86.8482C301.739 87.101 305.437 87.5706 309.885 88.4376C318.784 90.1719 330.675 93.4944 342.658 99.8445C366.595 112.53 390.929 137.309 392.468 185.795L392.467 185.83C392.465 185.865 392.463 185.917 392.46 185.986C392.454 186.125 392.444 186.332 392.427 186.605C392.393 187.149 392.333 187.951 392.229 188.98C392.022 191.038 391.64 194.001 390.939 197.611C389.537 204.832 386.863 214.635 381.777 224.966C371.611 245.615 351.803 268.383 313.179 276.852L312.472 277.007L312.867 277.614L400.373 411.897L321.474 410.955L235.444 276.837L235.296 276.606L235.022 276.607L224.434 276.641L223.935 276.643L223.936 277.142L224.023 409.203L147.265 409.451L147.258 352.192L147.258 351.994L147.123 351.849L89.0111 290.069L69.2869 266.982L60.0249 254.019L147.619 161.202ZM301.538 145.998L301.501 145.992L301.464 145.992L253.752 145.997L253.596 145.997L253.467 146.086L223.185 167.13L222.965 167.283L222.97 167.55L223.854 217.388L223.862 217.88L224.354 217.879L303.895 217.776L303.965 217.776L304.033 217.756C317.96 213.736 325.156 206.072 328.859 199.384C330.707 196.046 331.681 192.96 332.193 190.705C332.449 189.578 332.59 188.657 332.667 188.016C332.705 187.695 332.728 187.444 332.741 187.271C332.747 187.185 332.751 187.118 332.754 187.072C332.755 187.049 332.756 187.032 332.757 187.019L332.757 187.018C334.681 169.192 326.878 158.907 318.579 153.105C314.439 150.212 310.184 148.437 306.967 147.385C305.358 146.859 304.006 146.513 303.053 146.298C302.577 146.191 302.201 146.116 301.943 146.068C301.814 146.044 301.714 146.027 301.646 146.015C301.612 146.01 301.585 146.005 301.567 146.003L301.547 145.999L301.541 145.998L301.539 145.998C301.539 145.998 301.538 145.998 301.464 146.492L301.538 145.998Z" fill="url(#paint0_linear_39_2)" stroke="black"/>
<path d="M233.68 86.2129C233.68 86.2129 175.597 130.735 147.736 161.744L60.1523 253.76C60.1523 253.76 88.5658 293.948 101.869 305.041L147.172 351.73C147.172 351.73 159.863 369.018 198.131 367.581C198.131 367.581 200.494 367.38 201.727 365.426C201.727 365.426 152.724 315.937 145.001 276.964L312.868 276.869C312.868 276.869 387.179 270.112 392.771 182.582C392.771 182.582 397.846 105.101 304.799 87.2387L233.68 86.2129ZM301.409 146.795C301.409 146.795 336.018 152.027 332.202 187.284C332.202 187.284 331.425 209.615 303.838 217.579L224.297 217.682L224.296 217.637L224.293 217.639L224.296 217.803L154.722 217.335L223.403 167.895V167.903C223.407 167.896 223.411 167.892 223.415 167.89L223.414 167.844L253.696 146.8L301.409 146.795ZM223.539 174.848C223.535 174.85 223.529 174.849 223.525 174.85L223.526 174.91C223.531 174.913 223.535 174.915 223.54 174.917L223.539 174.848ZM223.648 181.787L223.656 182.178C223.657 182.159 223.659 182.142 223.661 182.102C223.664 182.02 223.665 182.011 223.661 181.929C223.659 181.881 223.654 181.834 223.648 181.787ZM223.687 183.852L223.701 184.693C223.705 184.692 223.709 184.691 223.713 184.69L223.698 183.855C223.694 183.855 223.691 183.853 223.687 183.852Z" fill="url(#paint1_linear_39_2)"/>
</g>
<defs>
<linearGradient id="paint0_linear_39_2" x1="230.598" y1="114.893" x2="230.598" y2="387.398" gradientUnits="userSpaceOnUse">
<stop stop-color="#EE6E26"/>
<stop offset="1" stop-color="#E5283B"/>
</linearGradient>
<linearGradient id="paint1_linear_39_2" x1="365.07" y1="86.0213" x2="251.955" y2="336.378" gradientUnits="userSpaceOnUse">
<stop stop-color="#F35C9D"/>
<stop offset="1" stop-color="#6D046F"/>
</linearGradient>
<clipPath id="clip0_39_2">
<rect width="496" height="488" fill="white"/>
</clipPath>
</defs>
</svg>
